<svg xmlns="http://www.w3.org/2000/svg" version="1.1" xmlns:xlink="http://www.w3.org/1999/xlink" xmlns:svgjs="http://svgjs.dev/svgjs" width="1920" height="1080" preserveAspectRatio="none" viewBox="0 0 1920 1080"><g mask="url(&quot;#SvgjsMask1035&quot;)" fill="none"><path d="M234.22 216.81L320.24 216.81L320.24 217.92L234.22 217.92z" stroke="#037b0b"></path><path d="M1821.18 457.55L1825.39 457.55L1825.39 544.01L1821.18 544.01z" fill="#037b0b"></path><path d="M1408.81 925.62L1426.25 925.62L1426.25 1023.08L1408.81 1023.08z" fill="#037b0b"></path><path d="M405.52 414.15a12.3 12.3 0 1 0-17.74-17.04z" stroke="#037b0b"></path><path d="M1743.11 1014.05a73.35 73.35 0 1 0 144.16-27.18z" fill="#037b0b"></path><path d="M918.29 348.86a71.4 71.4 0 1 0-130.05 58.97z" fill="#037b0b"></path><path d="M495.22 786.98 a27.85 27.85 0 1 0 55.7 0 a27.85 27.85 0 1 0 -55.7 0z" fill="#d3b714"></path><path d="M1705.88 300.33L1740.67 300.33L1740.67 369.85L1705.88 369.85z" fill="#e73635"></path><path d="M1004.89 598.09L1084.28 598.09L1084.28 677.48L1004.89 677.48z" stroke="#d3b714"></path><path d="M1040.72 1044.89L1140.52 1044.89L1140.52 1144.69L1040.72 1144.69z" fill="#e73635"></path><path d="M1511.66 972.3a36.67 36.67 0 1 0 34.8 64.56z" fill="#e73635"></path><path d="M844.72 396.6L896.89 396.6L896.89 456.74L844.72 456.74z" stroke="#037b0b"></path><path d="M1151.54 43.02L1224.23 43.02L1224.23 65.35L1151.54 65.35z" fill="#d3b714"></path><path d="M939.18 934.25 a18.16 18.16 0 1 0 36.32 0 a18.16 18.16 0 1 0 -36.32 0z" stroke="#037b0b"></path><path d="M827.89 51.19L853.48 51.19L853.48 76.78L827.89 76.78z" fill="#d3b714"></path><path d="M1699.43 42.64L1712.27 42.64L1712.27 150.16L1699.43 150.16z" fill="#037b0b"></path><path d="M395.88 808.58L479.32 808.58L479.32 892.02L395.88 892.02z" fill="#037b0b"></path><path d="M218.64 530.03L264.91 530.03L264.91 576.3L218.64 576.3z" stroke="#037b0b"></path><path d="M1548.43 621.31L1597.05 621.31L1597.05 669.93L1548.43 669.93z" stroke="#e73635"></path><path d="M1707.05 900.16a49.72 49.72 0 1 0 80.88-57.86z" stroke="#037b0b"></path><path d="M586.44 110.07L612.02 110.07L612.02 119.23L586.44 119.23z" fill="#e73635"></path><path d="M853.13 595.37 a10.81 10.81 0 1 0 21.62 0 a10.81 10.81 0 1 0 -21.62 0z" fill="#037b0b"></path><path d="M207.93 947.49L293.38 947.49L293.38 1032.94L207.93 1032.94z" fill="#e73635"></path></g><defs><mask id="SvgjsMask1035"><rect width="1920" height="1080" fill="#ffffff"></rect></mask></defs></svg>