<svg xmlns="http://www.w3.org/2000/svg" version="1.1" xmlns:xlink="http://www.w3.org/1999/xlink" xmlns:svgjs="http://svgjs.dev/svgjs" width="1920" height="200" preserveAspectRatio="none" viewBox="0 0 1920 200"><g mask="url(&quot;#SvgjsMask1010&quot;)" fill="none"><path d="M341.4 21.46L350.28 21.46L350.28 30.34L341.4 30.34z" fill="#e73635"></path><path d="M220.02 8.05L228.49 8.05L228.49 16.52L220.02 16.52z" fill="#e73635"></path><path d="M632.88 153.16L641.11 153.16L641.11 161.39L632.88 161.39z" fill="#e73635"></path><path d="M1657.99 185.84L1670.23 185.84L1670.23 198.08L1657.99 198.08z" stroke="#d3b714"></path><path d="M578.8 66.28L589.22 66.28L589.22 86.02L578.8 86.02z" fill="#e73635"></path><path d="M28.19 103.13L41.94 103.13L41.94 110.84L28.19 110.84z" fill="#e73635"></path><path d="M531.23 43.76L544.85 43.76L544.85 57.38L531.23 57.38z" stroke="#037b0b"></path><path d="M1814.34 189.08 a14.07 14.07 0 1 0 28.14 0 a14.07 14.07 0 1 0 -28.14 0z" stroke="#e73635"></path><path d="M1229.79 42.87 a2.97 2.97 0 1 0 5.94 0 a2.97 2.97 0 1 0 -5.94 0z" fill="#d3b714"></path><path d="M1567.85 197.92 a9.49 9.49 0 1 0 18.98 0 a9.49 9.49 0 1 0 -18.98 0z" stroke="#d3b714"></path><path d="M1676.53 84.24L1687.57 84.24L1687.57 95.28L1676.53 95.28z" fill="#e73635"></path><path d="M1379.25 132.04L1391.96 132.04L1391.96 144.75L1379.25 144.75z" stroke="#d3b714"></path><path d="M1257.13 157.05 a19.88 19.88 0 1 0 39.76 0 a19.88 19.88 0 1 0 -39.76 0z" fill="#e73635"></path><path d="M912.03 162.05L920.53 162.05L920.53 168.7L912.03 168.7z" stroke="#037b0b"></path><path d="M646.55 105.82L653.28 105.82L653.28 112.55L646.55 112.55z" fill="#037b0b"></path><path d="M1747.44 17.54a5.77 5.77 0 1 0-0.9-11.5z" fill="#e73635"></path><path d="M456.63 76.56L474.7 76.56L474.7 86.91L456.63 86.91z" stroke="#d3b714"></path><path d="M1181.9 64.07L1193.59 64.07L1193.59 76.91L1181.9 76.91z" stroke="#037b0b"></path><path d="M208.46 82.52a0.57 0.57 0 1 0-0.37-1.08z" fill="#037b0b"></path><path d="M1206.99 169.02a2.08 2.08 0 1 0 3.72 1.86z" fill="#d3b714"></path><path d="M1818.84 3.97 a12.39 12.39 0 1 0 24.78 0 a12.39 12.39 0 1 0 -24.78 0z" fill="#e73635"></path><path d="M1141.7 187.55 a13.76 13.76 0 1 0 27.52 0 a13.76 13.76 0 1 0 -27.52 0z" fill="#037b0b"></path><path d="M1792.91 35.61L1796.9 35.61L1796.9 52.3L1792.91 52.3z" fill="#e73635"></path><path d="M163.74 76.99a18.82 18.82 0 1 0-37.11-6.3z" fill="#d3b714"></path><path d="M1469.63 134.92L1488.17 134.92L1488.17 154.38L1469.63 154.38z" fill="#e73635"></path><path d="M489.55 59.08 a15.29 15.29 0 1 0 30.58 0 a15.29 15.29 0 1 0 -30.58 0z" stroke="#037b0b"></path><path d="M1665.42 180.77L1674.57 180.77L1674.57 186.13L1665.42 186.13z" fill="#e73635"></path><path d="M1700.71 99.46L1710.36 99.46L1710.36 109.11L1700.71 109.11z" stroke="#d3b714"></path><path d="M1169.99 134.51a2.74 2.74 0 1 0-5.45 0.59z" stroke="#e73635"></path><path d="M1684.68 42.83 a7.44 7.44 0 1 0 14.88 0 a7.44 7.44 0 1 0 -14.88 0z" fill="#e73635"></path><path d="M972.86 182.12a13.82 13.82 0 1 0 1.05 27.62z" stroke="#037b0b"></path><path d="M1233.22 43.47L1252.69 43.47L1252.69 52.02L1233.22 52.02z" fill="#e73635"></path><path d="M940.1 160.98L947.22 160.98L947.22 168.1L940.1 168.1z" stroke="#d3b714"></path><path d="M1308.83 64.61L1316.06 64.61L1316.06 68.97L1308.83 68.97z" fill="#037b0b"></path><path d="M1719.78 108.17L1738.6 108.17L1738.6 116.08L1719.78 116.08z" stroke="#037b0b"></path><path d="M1209.05 98.33 a16.98 16.98 0 1 0 33.96 0 a16.98 16.98 0 1 0 -33.96 0z" fill="#d3b714"></path><path d="M1044.07 53.68a7.28 7.28 0 1 0-14.45 1.73z" fill="#d3b714"></path><path d="M575.62 174.86 a18.88 18.88 0 1 0 37.76 0 a18.88 18.88 0 1 0 -37.76 0z" stroke="#e73635"></path><path d="M547.82 120.35 a4 4 0 1 0 8 0 a4 4 0 1 0 -8 0z" fill="#d3b714"></path><path d="M770.95 195.35L786.96 195.35L786.96 205.82L770.95 205.82z" fill="#e73635"></path><path d="M994.44 43.97a10.35 10.35 0 1 0 19.98 5.38z" stroke="#037b0b"></path><path d="M802.28 113.74L816.52 113.74L816.52 126.13L802.28 126.13z" stroke="#037b0b"></path><path d="M1280.35 140.14L1287.64 140.14L1287.64 142.18L1280.35 142.18z" stroke="#e73635"></path><path d="M864.39 190.14L870.7 190.14L870.7 196.45L864.39 196.45z" fill="#037b0b"></path><path d="M897.91 122.27L915.51 122.27L915.51 139.87L897.91 139.87z" fill="#e73635"></path><path d="M1682.86 58.51L1700.09 58.51L1700.09 75.74L1682.86 75.74z" stroke="#e73635"></path><path d="M630.38 83.64 a17.87 17.87 0 1 0 35.74 0 a17.87 17.87 0 1 0 -35.74 0z" stroke="#037b0b"></path><path d="M805.16 74.27a14.42 14.42 0 1 0 25.88-12.74z" stroke="#d3b714"></path><path d="M1211.69 124.18a10.45 10.45 0 1 0-13.83-15.67z" stroke="#037b0b"></path><path d="M809.17 11.61L823.45 11.61L823.45 25.89L809.17 25.89z" stroke="#e73635"></path><path d="M1301 128.33 a3.02 3.02 0 1 0 6.04 0 a3.02 3.02 0 1 0 -6.04 0z" fill="#d3b714"></path><path d="M1110.01 153.87a16 16 0 1 0-22.32-22.93z" fill="#e73635"></path><path d="M1642.51 111.88a14.37 14.37 0 1 0 9.18-27.23z" stroke="#d3b714"></path><path d="M195.18 2.44L207.1 2.44L207.1 14.36L195.18 14.36z" fill="#037b0b"></path><path d="M673.93 85.61L683.81 85.61L683.81 99.59L673.93 99.59z" stroke="#d3b714"></path><path d="M593.89 25.06L598.02 25.06L598.02 29.19L593.89 29.19z" fill="#037b0b"></path><path d="M1177.76 42.93L1179.97 42.93L1179.97 45.14L1177.76 45.14z" stroke="#037b0b"></path><path d="M447.59-4.49a18.79 18.79 0 1 0-29.12 23.75z" stroke="#d3b714"></path><path d="M1744.89 37.33L1758.52 37.33L1758.52 49.34L1744.89 49.34z" stroke="#037b0b"></path><path d="M1436.7 69.23L1443.41 69.23L1443.41 78.96L1436.7 78.96z" fill="#037b0b"></path><path d="M667.63 111.84 a1.6 1.6 0 1 0 3.2 0 a1.6 1.6 0 1 0 -3.2 0z" fill="#d3b714"></path><path d="M1480.14 130.29a15.77 15.77 0 1 0-2.48 31.44z" fill="#d3b714"></path><path d="M1194.75 189.46 a15.01 15.01 0 1 0 30.02 0 a15.01 15.01 0 1 0 -30.02 0z" stroke="#e73635"></path><path d="M893.49 11.61 a12.24 12.24 0 1 0 24.48 0 a12.24 12.24 0 1 0 -24.48 0z" fill="#037b0b"></path><path d="M1341.32 137a5.34 5.34 0 1 0 5 9.44z" fill="#d3b714"></path><path d="M486.35 38.27 a0.03 0.03 0 1 0 0.06 0 a0.03 0.03 0 1 0 -0.06 0z" fill="#d3b714"></path><path d="M138.61 59.8a1.07 1.07 0 1 0-1.87-1.04z" fill="#037b0b"></path><path d="M1713.66 182.71 a3.63 3.63 0 1 0 7.26 0 a3.63 3.63 0 1 0 -7.26 0z" stroke="#e73635"></path><path d="M1036.21 57.24L1054.85 57.24L1054.85 66.23L1036.21 66.23z" stroke="#e73635"></path><path d="M842.07 50.96L855.04 50.96L855.04 63.93L842.07 63.93z" stroke="#037b0b"></path><path d="M1126.04 11.01L1144.68 11.01L1144.68 29.65L1126.04 29.65z" stroke="#d3b714"></path><path d="M890.12 102.23a3.54 3.54 0 1 0 4.94-5.07z" stroke="#e73635"></path><path d="M763.77 104.17 a18.31 18.31 0 1 0 36.62 0 a18.31 18.31 0 1 0 -36.62 0z" stroke="#037b0b"></path><path d="M170.01 78.24a9.17 9.17 0 1 0 2.27-18.19z" fill="#037b0b"></path><path d="M1649.06 12.46L1659.29 12.46L1659.29 22.69L1649.06 22.69z" fill="#d3b714"></path><path d="M896.02 27.53 a5.67 5.67 0 1 0 11.34 0 a5.67 5.67 0 1 0 -11.34 0z" fill="#037b0b"></path><path d="M1855.9 142.09 a16.82 16.82 0 1 0 33.64 0 a16.82 16.82 0 1 0 -33.64 0z" fill="#e73635"></path><path d="M406.75 121.61L425.89 121.61L425.89 140.08L406.75 140.08z" fill="#037b0b"></path><path d="M1405.19 69.6L1411.4 69.6L1411.4 81.81L1405.19 81.81z" fill="#e73635"></path><path d="M1060.89 10.88L1064.47 10.88L1064.47 13.52L1060.89 13.52z" stroke="#e73635"></path><path d="M1504.16 4.99L1513 4.99L1513 6.1L1504.16 6.1z" stroke="#d3b714"></path><path d="M1413.14 79.94 a18.58 18.58 0 1 0 37.16 0 a18.58 18.58 0 1 0 -37.16 0z" stroke="#037b0b"></path><path d="M1433.97 67.71L1435.19 67.71L1435.19 72.72L1433.97 72.72z" stroke="#e73635"></path><path d="M1625.07 107a4.22 4.22 0 1 0 0.45-8.43z" stroke="#037b0b"></path><path d="M1699.42 177.21L1717.58 177.21L1717.58 195.37L1699.42 195.37z" stroke="#d3b714"></path><path d="M283.19 104.13 a8.78 8.78 0 1 0 17.56 0 a8.78 8.78 0 1 0 -17.56 0z" fill="#d3b714"></path><path d="M1046.33 198.26a10.71 10.71 0 1 0 17.24-12.7z" stroke="#e73635"></path><path d="M1486.72 93.01L1506.01 93.01L1506.01 107.81L1486.72 107.81z" stroke="#d3b714"></path><path d="M984.29-1.64a5.49 5.49 0 1 0 5.86 9.29z" stroke="#d3b714"></path><path d="M1563.68 120.67L1570.75 120.67L1570.75 133.81L1563.68 133.81z" fill="#037b0b"></path><path d="M1366.41 58.28a13.1 13.1 0 1 0-18.5-18.55z" fill="#037b0b"></path><path d="M660.13 131.33 a19.04 19.04 0 1 0 38.08 0 a19.04 19.04 0 1 0 -38.08 0z" stroke="#e73635"></path><path d="M202.98 108.21a9.81 9.81 0 1 0 14.55 13.16z" stroke="#037b0b"></path><path d="M75.03 11.74 a8.4 8.4 0 1 0 16.8 0 a8.4 8.4 0 1 0 -16.8 0z" fill="#037b0b"></path><path d="M1554.69 32.6L1561.24 32.6L1561.24 49.37L1554.69 49.37z" fill="#e73635"></path><path d="M1278.73 148.78L1280.59 148.78L1280.59 150.64L1278.73 150.64z" fill="#e73635"></path><path d="M128.54 113.27L132.8 113.27L132.8 123.71L128.54 123.71z" stroke="#e73635"></path><path d="M1302.59 107.28L1317.24 107.28L1317.24 121.93L1302.59 121.93z" stroke="#e73635"></path><path d="M1134.62 125.59a10.58 10.58 0 1 0-17.3-12.18z" stroke="#e73635"></path><path d="M1818.76 36.36a2.41 2.41 0 1 0-4.33 2.12z" stroke="#d3b714"></path><path d="M1664.07 86.27a5.84 5.84 0 1 0 4.09 10.94z" stroke="#037b0b"></path><path d="M856.92 10.92L870.86 10.92L870.86 13.06L856.92 13.06z" stroke="#d3b714"></path><path d="M1781.19 131.19L1801.08 131.19L1801.08 151.08L1781.19 151.08z" fill="#d3b714"></path><path d="M1067.31 15.23L1070.66 15.23L1070.66 18.58L1067.31 18.58z" stroke="#037b0b"></path><path d="M1245.88 26.75a8.12 8.12 0 1 0-14.09 8.08z" stroke="#037b0b"></path><path d="M170.63 143.93a11.79 11.79 0 1 0 5.7-22.88z" stroke="#e73635"></path><path d="M1892.47 195.35L1896.27 195.35L1896.27 199.15L1892.47 199.15z" fill="#d3b714"></path><path d="M1000.07 112.4 a12.16 12.16 0 1 0 24.32 0 a12.16 12.16 0 1 0 -24.32 0z" fill="#e73635"></path><path d="M719.97 69.76L732.77 69.76L732.77 77.54L719.97 77.54z" stroke="#e73635"></path><path d="M1095.59 69.66 a6.51 6.51 0 1 0 13.02 0 a6.51 6.51 0 1 0 -13.02 0z" stroke="#037b0b"></path><path d="M12.96 49.62a12.18 12.18 0 1 0 11.32 21.57z" fill="#037b0b"></path><path d="M211.2 161.4L221.37 161.4L221.37 175.22L211.2 175.22z" stroke="#e73635"></path><path d="M592.1 75.82a13.4 13.4 0 1 0 21.68 15.76z" stroke="#037b0b"></path><path d="M1428.77 90.99a13.32 13.32 0 1 0-10.97 24.27z" fill="#037b0b"></path><path d="M1206.48 63.06L1219.22 63.06L1219.22 75.8L1206.48 75.8z" fill="#e73635"></path><path d="M14.64 185.68L22.77 185.68L22.77 191.91L14.64 191.91z" fill="#e73635"></path><path d="M1340.7 118.22L1351.79 118.22L1351.79 119.31L1340.7 119.31z" fill="#d3b714"></path><path d="M1745.2 16.94L1760.24 16.94L1760.24 18.05L1745.2 18.05z" fill="#037b0b"></path><path d="M1588.05 166.59 a1.74 1.74 0 1 0 3.48 0 a1.74 1.74 0 1 0 -3.48 0z" stroke="#d3b714"></path><path d="M1525.37 168.46L1545.15 168.46L1545.15 182.76L1525.37 182.76z" fill="#d3b714"></path></g><defs><mask id="SvgjsMask1010"><rect width="1920" height="200" fill="#ffffff"></rect></mask></defs></svg>