<svg xmlns="http://www.w3.org/2000/svg" version="1.1" xmlns:xlink="http://www.w3.org/1999/xlink" xmlns:svgjs="http://svgjs.dev/svgjs" width="1920" height="200" preserveAspectRatio="none" viewBox="0 0 1920 200"><g mask="url(&quot;#SvgjsMask1055&quot;)" fill="none"><path d="M9.571,40.712C17.074,40.71,22.941,35.173,26.843,28.765C30.951,22.019,34.01,13.802,30.157,6.907C26.238,-0.106,17.6,-2.434,9.571,-2.145C2.087,-1.876,-4.946,1.764,-8.601,8.301C-12.174,14.691,-11.294,22.387,-7.714,28.773C-4.044,35.319,2.066,40.714,9.571,40.712" fill="rgba(28, 83, 142, 0.4)" class="triangle-float2"></path><path d="M519.02,204.801C530.288,204.596,541.181,199.698,546.859,189.963C552.579,180.157,552.237,167.811,546.204,158.195C540.515,149.126,529.726,145.631,519.02,145.586C508.219,145.541,497.342,148.921,491.438,157.966C484.973,167.871,483.368,180.817,489.37,191.009C495.299,201.076,507.339,205.013,519.02,204.801" fill="rgba(28, 83, 142, 0.4)" class="triangle-float1"></path><path d="M940.937,79.646C949.326,79.682,957.79,76.729,962.139,69.555C966.634,62.14,966.304,52.677,961.768,45.287C957.427,38.215,949.222,34.557,940.937,35.015C933.382,35.433,927.681,40.925,923.75,47.391C919.611,54.198,916.298,62.346,920.044,69.376C923.955,76.716,932.62,79.611,940.937,79.646" fill="rgba(28, 83, 142, 0.4)" class="triangle-float2"></path><path d="M1520.449677809226 43.226146827887746L1523.9473685869968 111.20558410874423 1574.4090509902958 79.67362532914049z" fill="rgba(28, 83, 142, 0.4)" class="triangle-float3"></path><path d="M465.33,190.617C480.816,190.076,494.929,181.722,502.441,168.17C509.733,155.016,508.537,139.164,501.095,126.094C493.568,112.875,480.528,103.651,465.33,102.99C448.897,102.275,432.366,108.726,423.732,122.727C414.693,137.386,414.437,156.246,423.435,170.931C432.075,185.032,448.803,191.195,465.33,190.617" fill="rgba(28, 83, 142, 0.4)" class="triangle-float1"></path><path d="M352.73165795790135 121.16167711185793L333.08507101027175 67.18312310389368 298.7531039499371 140.80826405948756z" fill="rgba(28, 83, 142, 0.4)" class="triangle-float2"></path><path d="M1772.02 15.71 a52.47 52.47 0 1 0 104.94 0 a52.47 52.47 0 1 0 -104.94 0z" fill="rgba(28, 83, 142, 0.4)" class="triangle-float2"></path><path d="M873.78 163.02 a50.68 50.68 0 1 0 101.36 0 a50.68 50.68 0 1 0 -101.36 0z" fill="rgba(28, 83, 142, 0.4)" class="triangle-float2"></path><path d="M1803.2075334379854 132.54728914398058L1797.5054071325815 91.97455227729975 1756.9326702659007 97.67667858270357 1762.6347965713046 138.2494154493844z" fill="rgba(28, 83, 142, 0.4)" class="triangle-float1"></path><path d="M76.92683267213125 79.10769925273542L80.40592302156992 29.354389288465356 30.652613057299867 25.875298939026685 27.173522707861196 75.62860890329674z" fill="rgba(28, 83, 142, 0.4)" class="triangle-float2"></path><path d="M1348.16 122.46 a52.57 52.57 0 1 0 105.14 0 a52.57 52.57 0 1 0 -105.14 0z" fill="rgba(28, 83, 142, 0.4)" class="triangle-float3"></path><path d="M383.5719560533827 130.10666296752498L402.52863582399533 177.026091852191 449.4480647086614 158.06941208157832 430.49138493804867 111.14998319691232z" fill="rgba(28, 83, 142, 0.4)" class="triangle-float3"></path><path d="M1419.738,171.066C1435.795,170.848,1446.59,156.343,1454.188,142.196C1461.28,128.992,1465.277,113.32,1457.698,100.39C1450.186,87.574,1434.592,83.243,1419.738,83.424C1405.255,83.601,1390.843,88.902,1383.35,101.297C1375.614,114.094,1376.715,129.894,1383.63,143.153C1391.17,157.61,1403.435,171.287,1419.738,171.066" fill="rgba(28, 83, 142, 0.4)" class="triangle-float2"></path><path d="M1300.315051291397 204.3806035821255L1357.477711149769 189.06391503585974 1342.1610226035032 131.9012551774876 1284.998362745131 147.21794372375336z" fill="rgba(28, 83, 142, 0.4)" class="triangle-float3"></path><path d="M1600.6091533927975 187.28427382786091L1605.610755890947 222.87252480659546 1656.492331109974 197.57599557000384z" fill="rgba(28, 83, 142, 0.4)" class="triangle-float3"></path><path d="M234.558,171.761C253.14,171.253,270.595,163.292,280.677,147.674C291.738,130.54,296.395,108.883,286.748,90.915C276.646,72.099,255.849,60.103,234.558,61.772C215.384,63.275,204.402,81.428,194.845,98.118C185.374,114.657,174.81,133.545,183.856,150.32C193.191,167.63,214.898,172.298,234.558,171.761" fill="rgba(28, 83, 142, 0.4)" class="triangle-float3"></path><path d="M1410.590662494747 117.0544012700416L1452.831618615332 64.99269178667296 1395.116132826849 54.81589443746746z" fill="rgba(28, 83, 142, 0.4)" class="triangle-float2"></path><path d="M1646.89 166.96 a36.85 36.85 0 1 0 73.7 0 a36.85 36.85 0 1 0 -73.7 0z" fill="rgba(28, 83, 142, 0.4)" class="triangle-float3"></path><path d="M1139.8218018665152 35.50535685542792L1112.3075519288798-8.526647360435497 1095.7897976506517 63.019606793063275z" fill="rgba(28, 83, 142, 0.4)" class="triangle-float3"></path><path d="M-1.9837004591611898 129.8765340214395L17.02895204841237 164.17626709948323 58.97222541169115 118.50742179910102z" fill="rgba(28, 83, 142, 0.4)" class="triangle-float2"></path></g><defs><mask id="SvgjsMask1055"><rect width="1920" height="200" fill="#ffffff"></rect></mask><style>
                @keyframes float1 {
                    0%{transform: translate(0, 0)}
                    50%{transform: translate(-10px, 0)}
                    100%{transform: translate(0, 0)}
                }

                .triangle-float1 {
                    animation: float1 5s infinite;
                }

                @keyframes float2 {
                    0%{transform: translate(0, 0)}
                    50%{transform: translate(-5px, -5px)}
                    100%{transform: translate(0, 0)}
                }

                .triangle-float2 {
                    animation: float2 4s infinite;
                }

                @keyframes float3 {
                    0%{transform: translate(0, 0)}
                    50%{transform: translate(0, -10px)}
                    100%{transform: translate(0, 0)}
                }

                .triangle-float3 {
                    animation: float3 6s infinite;
                }
            </style></defs></svg>