<?xml version="1.0" encoding="UTF-8"?>
<!DOCTYPE svg PUBLIC "-//W3C//DTD SVG 1.1//EN" "http://www.w3.org/Graphics/SVG/1.1/DTD/svg11.dtd">
<!-- Creator: CorelDRAW -->
<svg xmlns="http://www.w3.org/2000/svg" xml:space="preserve" width="2048px" height="2048px" style="shape-rendering:geometricPrecision; text-rendering:geometricPrecision; image-rendering:optimizeQuality; fill-rule:evenodd; clip-rule:evenodd"
viewBox="0 0 2048 2048"
 xmlns:xlink="http://www.w3.org/1999/xlink">
 <defs>
  <style type="text/css">
   <![CDATA[
    .fil2 {fill:none}
    .fil6 {fill:#4D2909}
    .fil5 {fill:#57300F}
    .fil4 {fill:#673B15}
    .fil7 {fill:#7C4D24}
    .fil10 {fill:#824E21}
    .fil9 {fill:#945823}
    .fil1 {fill:#9FA8DA}
    .fil0 {fill:#C5CAE9}
    .fil8 {fill:#424242;fill-rule:nonzero}
    .fil3 {fill:#F16767;fill-rule:nonzero}
   ]]>
  </style>
   <clipPath id="id0">
    <path d="M1024 -0.0011811c565.539,0 1024,458.462 1024,1024 0,565.539 -458.462,1024 -1024,1024 -565.539,0 -1024,-458.462 -1024,-1024 0,-565.539 458.462,-1024 1024,-1024z"/>
   </clipPath>
 </defs>
 <g id="Layer_x0020_1">
  <metadata id="CorelCorpID_0Corel-Layer"/>
  <path class="fil0" d="M1024 -0.0011811c565.539,0 1024,458.462 1024,1024 0,565.539 -458.462,1024 -1024,1024 -565.539,0 -1024,-458.462 -1024,-1024 0,-565.539 458.462,-1024 1024,-1024z"/>
  <g style="clip-path:url(#id0)">
   <g id="_289370120">
    <g>
     <polygon id="_3062998321" class="fil1" points="755.454,545.332 1891.33,1681.21 1891.33,1734.99 755.454,599.104 "/>
     <polygon id="_306299160" class="fil1" points="755.454,599.104 1891.33,1734.99 1872.66,1734.99 1868.55,1735.01 1864.53,1735.09 1860.59,1735.21 1856.74,1735.38 1852.96,1735.61 1849.28,1735.88 1845.67,1736.2 1842.16,1736.57 1838.72,1736.99 1835.37,1737.46 1832.1,1737.98 1828.92,1738.55 1825.82,1739.17 1822.81,1739.84 1819.88,1740.55 1817.03,1741.32 1814.27,1742.13 1811.59,1743 1809,1743.91 1806.49,1744.87 1804.06,1745.88 1801.72,1746.94 1799.46,1748.05 1797.29,1749.21 1795.2,1750.42 1793.19,1751.67 1791.27,1752.98 1789.44,1754.33 1787.68,1755.73 1786.01,1757.18 1784.43,1758.68 1782.93,1760.23 647.047,624.347 648.549,622.798 650.134,621.299 651.802,619.849 653.555,618.447 655.392,617.093 657.313,615.789 659.319,614.534 661.408,613.327 663.582,612.169 665.839,611.06 668.181,610.001 670.607,608.99 673.117,608.028 675.71,607.115 678.389,606.251 681.151,605.436 683.997,604.671 686.927,603.955 689.941,603.287 693.04,602.669 696.223,602.1 699.49,601.581 702.84,601.111 706.275,600.69 709.793,600.318 713.397,599.997 717.083,599.724 720.854,599.501 724.711,599.327 728.65,599.203 732.673,599.129 736.78,599.104 "/>
     <polygon id="_306300528" class="fil1" points="647.047,624.347 1782.93,1760.23 1781.49,1761.85 1780.1,1763.58 1778.76,1765.42 1777.46,1767.35 1776.2,1769.4 1775,1771.54 1773.83,1773.79 1772.72,1776.15 1771.64,1778.61 1770.62,1781.17 1769.64,1783.84 1768.7,1786.62 1767.82,1789.5 1766.97,1792.48 1766.17,1795.57 1765.42,1798.76 1764.71,1802.06 1764.05,1805.47 1763.44,1808.97 1762.87,1812.59 1762.34,1816.3 1761.87,1820.13 1761.43,1824.06 1761.05,1828.09 1760.7,1832.23 1760.41,1836.47 1760.16,1840.82 1759.95,1845.27 1759.79,1849.83 1759.68,1854.5 1759.61,1859.27 1759.59,1864.14 1759.59,1987.07 1759.57,1992.34 1759.5,1997.51 1759.4,2002.59 1759.25,2007.58 1759.05,2012.46 1758.82,2017.26 1758.54,2021.95 1758.22,2026.56 1757.86,2031.06 1757.45,2035.48 1757.01,2039.79 1756.51,2044.01 1755.98,2048.14 1755.4,2052.17 1754.78,2056.11 1754.12,2059.95 1753.41,2063.69 1752.66,2067.34 1751.87,2070.9 1751.03,2074.36 1750.16,2077.72 1749.23,2080.99 1748.27,2084.17 1747.26,2087.24 1746.21,2090.23 1745.11,2093.12 1743.97,2095.91 1742.79,2098.61 1741.57,2101.21 1740.3,2103.72 1738.98,2106.13 1737.63,2108.45 601.747,972.564 603.103,970.247 604.415,967.835 605.685,965.328 606.91,962.724 608.092,960.027 609.231,957.233 610.327,954.346 611.378,951.362 612.387,948.283 613.353,945.109 614.274,941.84 615.153,938.475 615.989,935.016 616.782,931.461 617.532,927.811 618.238,924.066 618.9,920.225 619.521,916.289 620.098,912.258 620.633,908.133 621.124,903.91 621.572,899.594 621.978,895.182 622.341,890.675 622.661,886.072 622.939,881.375 623.173,876.582 623.365,871.694 623.514,866.71 623.62,861.633 623.684,856.458 623.705,851.189 623.705,728.259 623.728,723.384 623.796,718.614 623.911,713.95 624.07,709.391 624.274,704.937 624.526,700.588 624.823,696.345 625.164,692.207 625.551,688.173 625.985,684.245 626.463,680.422 626.987,676.704 627.557,673.091 628.173,669.583 628.834,666.179 629.54,662.881 630.292,659.688 631.091,656.599 631.934,653.615 632.823,650.736 633.758,647.962 634.738,645.292 635.763,642.727 636.834,640.267 637.952,637.91 639.114,635.659 640.322,633.513 641.576,631.471 642.876,629.533 644.221,627.7 645.611,625.971 "/>
     <polygon id="_306300144" class="fil1" points="601.747,972.564 1737.63,2108.45 1736.22,2110.71 1734.74,2112.94 1733.2,2115.12 1731.59,2117.26 1729.92,2119.37 1728.18,2121.43 1726.37,2123.46 1724.5,2125.44 1722.56,2127.38 1720.56,2129.29 1718.49,2131.15 1716.35,2132.97 1714.15,2134.76 1711.89,2136.5 1709.55,2138.21 1707.15,2139.87 1704.69,2141.49 1702.16,2143.08 1699.57,2144.63 1696.9,2146.14 1694.18,2147.6 1691.38,2149.03 1688.52,2150.42 1685.6,2151.77 1682.61,2153.08 1679.55,2154.36 1676.43,2155.59 1673.24,2156.79 1669.98,2157.94 1666.66,2159.06 1663.28,2160.14 1659.82,2161.18 523.943,1025.3 527.396,1024.26 530.782,1023.18 534.102,1022.06 537.356,1020.9 540.545,1019.71 543.668,1018.47 546.724,1017.2 549.716,1015.89 552.641,1014.54 555.5,1013.15 558.295,1011.72 561.022,1010.25 563.684,1008.75 566.28,1007.2 568.81,1005.61 571.274,1003.99 573.672,1002.32 576.005,1000.62 578.272,998.874 580.472,997.09 582.608,995.266 584.677,993.404 586.68,991.5 588.618,989.557 590.489,987.574 592.295,985.549 594.035,983.486 595.71,981.382 597.318,979.239 598.86,977.054 600.337,974.829 "/>
     <polygon id="_306300384" class="fil1" points="584.677,1056.56 1720.56,2192.44 1722.56,2194.33 1724.5,2196.26 1726.37,2198.24 1728.18,2200.26 1729.92,2202.31 1731.59,2204.41 1733.2,2206.55 1734.74,2208.73 1736.22,2210.96 1737.63,2213.22 601.747,1077.34 600.337,1075.07 598.86,1072.85 597.318,1070.67 595.71,1068.53 594.035,1066.43 592.295,1064.37 590.489,1062.36 588.618,1060.38 586.68,1058.45 "/>
     <polygon id="_306300024" class="fil1" points="528.225,1077.92 1664.11,2213.8 1662.56,2212.4 1660.96,2211.03 1659.31,2209.7 1657.62,2208.41 1655.88,2207.15 1654.09,2205.93 1652.26,2204.74 1650.37,2203.6 1648.44,2202.48 1646.46,2201.41 1644.44,2200.37 1642.36,2199.37 1640.24,2198.41 1638.07,2197.48 1635.86,2196.59 1633.59,2195.73 1631.28,2194.91 1628.93,2194.13 1626.52,2193.39 1624.07,2192.68 1621.57,2192.01 1619.02,2191.38 1616.43,2190.78 1613.79,2190.22 1611.1,2189.7 1608.37,2189.21 1605.58,2188.76 1602.76,2188.35 1599.88,2187.97 463.999,1052.09 466.875,1052.47 469.704,1052.88 472.485,1053.33 475.22,1053.81 477.909,1054.34 480.548,1054.9 483.142,1055.49 485.689,1056.13 488.189,1056.8 490.641,1057.51 493.046,1058.25 495.403,1059.03 497.713,1059.85 499.976,1060.7 502.192,1061.59 504.361,1062.52 506.482,1063.49 508.555,1064.49 510.581,1065.53 512.56,1066.6 514.491,1067.71 516.375,1068.86 518.21,1070.05 519.998,1071.27 521.739,1072.52 523.432,1073.82 525.077,1075.15 526.675,1076.52 "/>
     <polygon id="_306300360" class="fil1" points="601.747,1077.34 1737.63,2213.22 1738.98,2215.54 1740.3,2217.95 1741.57,2220.46 1742.79,2223.06 1743.97,2225.76 1745.11,2228.55 1746.21,2231.44 1747.26,2234.43 1748.27,2237.51 1749.23,2240.68 1750.16,2243.95 1751.03,2247.32 1751.87,2250.78 1752.66,2254.34 1753.41,2257.99 1754.12,2261.74 1754.78,2265.59 1755.4,2269.53 1755.98,2273.56 1756.51,2277.7 1757.01,2281.92 1757.45,2286.25 1757.86,2290.67 1758.22,2295.18 1758.54,2299.8 1758.82,2304.5 1759.05,2309.31 1759.25,2314.21 1759.4,2319.2 1759.5,2324.3 1759.57,2329.49 1759.59,2334.77 1759.59,2457.01 1759.61,2461.87 1759.67,2466.62 1759.79,2471.27 1759.94,2475.82 1760.14,2480.26 1760.39,2484.6 1760.68,2488.83 1761.01,2492.96 1761.39,2496.98 1761.82,2500.9 1762.28,2504.72 1762.8,2508.43 1763.35,2512.04 1763.96,2515.54 1764.6,2518.94 1765.29,2522.23 1766.03,2525.42 1766.81,2528.51 1767.63,2531.49 1768.5,2534.37 1769.42,2537.14 1770.37,2539.81 1771.38,2542.37 1772.42,2544.83 1773.52,2547.19 1774.65,2549.44 1775.83,2551.58 1777.06,2553.62 1778.33,2555.56 1779.65,2557.39 1781,2559.12 1782.41,2560.75 646.528,1424.87 645.123,1423.24 643.764,1421.51 642.449,1419.68 641.178,1417.74 639.952,1415.7 638.771,1413.55 637.635,1411.3 636.543,1408.95 635.495,1406.49 634.492,1403.92 633.534,1401.26 632.62,1398.48 631.751,1395.61 630.926,1392.63 630.146,1389.54 629.411,1386.35 628.72,1383.06 628.074,1379.66 627.472,1376.16 626.914,1372.55 626.402,1368.84 625.934,1365.02 625.51,1361.1 625.132,1357.08 624.798,1352.95 624.507,1348.72 624.263,1344.38 624.062,1339.94 623.906,1335.39 623.794,1330.74 623.728,1325.98 623.705,1321.13 623.705,1198.89 623.684,1193.6 623.62,1188.41 623.514,1183.32 623.365,1178.33 623.173,1173.42 622.939,1168.62 622.661,1163.91 622.341,1159.3 621.978,1154.79 621.572,1150.37 621.124,1146.04 620.633,1141.81 620.098,1137.68 619.521,1133.65 618.9,1129.7 618.238,1125.86 617.532,1122.11 616.782,1118.46 615.989,1114.9 615.153,1111.44 614.274,1108.07 613.353,1104.8 612.387,1101.62 611.378,1098.54 610.327,1095.56 609.231,1092.67 608.092,1089.88 606.91,1087.18 605.685,1084.58 604.415,1082.07 603.103,1079.66 "/>
     <polygon id="_306299976" class="fil1" points="755.454,1448.9 1891.33,2584.78 1891.33,2638.55 755.454,1502.67 "/>
     <polygon id="_306300072" class="fil1" points="646.528,1424.87 1782.41,2560.75 1783.87,2562.28 1785.42,2563.76 1787.04,2565.2 651.162,1429.32 649.538,1427.88 647.993,1426.4 "/>
     <polygon id="_306300552" class="fil1" points="755.454,1502.67 1891.33,2638.55 1867.48,2638.55 1861.31,2638.52 1855.28,2638.41 1849.36,2638.23 1843.58,2637.98 1837.91,2637.65 1832.38,2637.26 1826.96,2636.79 1821.68,2636.25 1816.51,2635.64 1811.48,2634.96 1806.57,2634.21 1801.78,2633.38 1797.12,2632.49 1792.59,2631.52 1788.18,2630.48 1783.9,2629.37 1779.75,2628.18 1775.72,2626.93 1771.81,2625.6 1768.04,2624.21 1764.39,2622.74 1760.86,2621.2 1757.47,2619.59 1754.2,2617.91 1751.05,2616.16 1748.04,2614.33 1745.15,2612.44 1742.39,2610.47 1739.75,2608.43 1737.25,2606.33 601.365,1470.44 603.872,1472.55 606.507,1474.59 609.269,1476.56 612.158,1478.45 615.173,1480.27 618.316,1482.03 621.586,1483.71 624.982,1485.32 628.505,1486.86 632.156,1488.33 635.932,1489.72 639.834,1491.05 643.864,1492.3 648.019,1493.48 652.301,1494.6 656.709,1495.63 661.242,1496.6 665.901,1497.5 670.686,1498.32 675.597,1499.08 680.633,1499.76 685.795,1500.37 691.082,1500.91 696.494,1501.38 702.032,1501.77 707.695,1502.09 713.482,1502.35 719.395,1502.53 725.432,1502.63 731.594,1502.67 "/>
     <polygon id="_306300600" class="fil1" points="1400.95,624.347 2536.83,1760.23 2535.33,1758.68 2533.75,1757.18 2532.08,1755.73 2530.33,1754.33 2528.49,1752.98 2526.57,1751.67 2524.56,1750.42 2522.47,1749.21 2520.3,1748.05 2518.04,1746.94 2515.7,1745.88 2513.27,1744.87 2510.76,1743.91 2508.17,1743 2505.49,1742.13 2502.73,1741.32 2499.88,1740.55 2496.95,1739.84 2493.94,1739.17 2490.84,1738.55 2487.66,1737.98 2484.39,1737.46 2481.04,1736.99 2477.61,1736.57 2474.09,1736.2 2470.48,1735.88 2466.8,1735.61 2463.03,1735.38 2459.17,1735.21 2455.23,1735.09 2451.21,1735.01 2447.1,1734.99 2428.43,1734.99 1292.55,599.104 1311.22,599.104 1315.33,599.129 1319.35,599.203 1323.29,599.327 1327.15,599.501 1330.92,599.724 1334.6,599.997 1338.21,600.318 1341.73,600.69 1345.16,601.111 1348.51,601.581 1351.78,602.1 1354.96,602.669 1358.06,603.287 1361.07,603.955 1364,604.671 1366.85,605.436 1369.61,606.251 1372.29,607.115 1374.88,608.028 1377.39,608.99 1379.82,610.001 1382.16,611.06 1384.42,612.169 1386.59,613.327 1388.68,614.534 1390.69,615.789 1392.61,617.093 1394.44,618.447 1396.2,619.849 1397.87,621.299 1399.45,622.798 "/>
     <polygon id="_306301320" class="fil1" points="1402.39,625.971 2538.27,1761.85 2536.83,1760.23 1400.95,624.347 "/>
     <polygon id="_306300960" class="fil1" points="1264.71,724.151 2400.59,1860.03 2391.64,1858.63 2382.73,1857.68 2373.86,1857.2 2365.05,1857.16 2356.31,1857.56 2347.66,1858.4 2339.11,1859.65 2330.67,1861.31 2322.35,1863.38 2314.18,1865.85 2306.15,1868.69 2298.29,1871.92 2290.6,1875.51 2283.1,1879.46 2275.81,1883.76 2268.73,1888.4 2261.88,1893.37 2255.27,1898.66 2248.92,1904.27 2242.83,1910.18 2237.03,1916.39 2231.52,1922.88 2226.31,1929.66 2221.43,1936.7 2216.88,1944 2212.67,1951.55 2208.82,1959.34 2205.34,1967.36 2202.25,1975.61 2199.56,1984.08 2197.27,1992.75 2195.41,2001.62 2195.37,2001.84 2195.32,2002.06 2195.26,2002.27 2195.19,2002.48 2195.11,2002.69 2195.03,2002.89 2194.94,2003.09 2194.84,2003.28 1058.96,867.398 1059.06,867.204 1059.15,867.005 1059.23,866.803 1059.31,866.597 1059.38,866.386 1059.44,866.173 1059.49,865.955 1059.53,865.733 1061.39,856.867 1063.68,848.196 1066.37,839.733 1069.46,831.483 1072.94,823.458 1076.79,815.665 1080.99,808.114 1085.55,800.814 1090.43,793.773 1095.64,787.002 1101.15,780.508 1106.95,774.301 1113.04,768.389 1119.39,762.781 1126,757.488 1132.85,752.516 1139.93,747.877 1147.22,743.578 1154.72,739.628 1162.4,736.036 1170.27,732.812 1178.29,729.963 1186.47,727.501 1194.79,725.432 1203.23,723.767 1211.78,722.514 1220.43,721.681 1229.17,721.28 1237.98,721.316 1246.85,721.801 1255.76,722.743 "/>
     <path id="_306300672" class="fil1" d="M2329.72 2057.28l0 0zm-1135.88 -1135.88l0 0z"/>
     <polygon id="_306300792" class="fil1" points="907.99,913.872 2043.87,2049.75 2034.57,2053.14 898.686,917.26 "/>
     <polygon id="_306300840" class="fil1" points="1524.06,1025.3 2659.94,2161.18 2656.49,2160.14 2653.1,2159.06 2649.78,2157.94 2646.53,2156.79 2643.34,2155.59 2640.21,2154.36 2637.16,2153.08 2634.17,2151.77 2631.24,2150.42 2628.38,2149.03 2625.59,2147.6 2622.86,2146.14 2620.2,2144.63 2617.6,2143.08 2615.07,2141.49 2612.61,2139.87 2610.21,2138.21 2607.88,2136.5 2605.61,2134.76 2603.41,2132.97 2601.27,2131.15 2599.2,2129.29 2597.2,2127.38 2595.26,2125.44 2593.39,2123.46 1457.51,987.574 1459.38,989.557 1461.32,991.5 1463.32,993.404 1465.39,995.266 1467.53,997.09 1469.73,998.874 1471.99,1000.62 1474.33,1002.32 1476.73,1003.99 1479.19,1005.61 1481.72,1007.2 1484.32,1008.75 1486.98,1010.25 1489.71,1011.72 1492.5,1013.15 1495.36,1014.54 1498.28,1015.89 1501.28,1017.2 1504.33,1018.47 1507.46,1019.71 1510.64,1020.9 1513.9,1022.06 1517.22,1023.18 1520.6,1024.26 "/>
     <polygon id="_306300744" class="fil1" points="1270.15,714.237 2406.03,1850.12 2406.7,1851.01 2407.17,1852.01 2407.43,1853.07 2407.51,1854.17 2407.4,1855.27 2407.11,1856.34 2406.65,1857.34 2406.02,1858.24 2405.23,1859.01 2404.29,1859.6 2403.2,1859.99 2401.96,1860.15 2400.59,1860.03 1264.71,724.151 1266.08,724.267 1267.32,724.112 1268.41,723.719 1269.35,723.123 1270.14,722.358 1270.77,721.458 1271.23,720.456 1271.52,719.389 1271.63,718.288 1271.55,717.188 1271.29,716.123 1270.82,715.129 "/>
     <polygon id="_306300888" class="fil1" points="1453.28,585.259 2589.16,1721.14 2591.28,1723.7 2593.32,1726.41 2595.3,1729.26 2597.21,1732.26 2599.04,1735.42 2600.81,1738.72 2602.51,1742.16 2604.13,1745.76 2605.69,1749.5 2607.18,1753.4 2608.6,1757.44 2609.95,1761.62 2611.23,1765.96 2612.44,1770.45 2613.58,1775.08 2614.65,1779.85 2615.65,1784.78 2616.59,1789.85 2617.45,1795.07 2618.24,1800.44 2618.97,1805.95 2619.63,1811.62 2620.21,1817.42 2620.73,1823.38 2621.18,1829.48 2621.56,1835.73 2621.87,1842.12 2622.11,1848.66 2622.28,1855.34 2622.38,1862.18 2622.42,1869.15 2622.42,1992.26 2622.45,1997.09 2622.53,2001.84 2622.67,2006.49 2622.87,2011.06 2623.13,2015.54 2623.44,2019.93 2623.81,2024.22 2624.23,2028.43 2624.71,2032.55 2625.25,2036.58 2625.84,2040.53 2626.49,2044.38 2627.2,2048.14 2627.96,2051.81 2628.78,2055.39 2629.66,2058.89 2630.59,2062.29 2631.58,2065.61 2632.62,2068.83 2633.72,2071.96 2634.88,2075.01 2636.09,2077.96 2637.36,2080.83 2638.69,2083.61 2640.07,2086.29 2641.5,2088.89 2642.99,2091.39 2644.54,2093.81 2646.15,2096.13 2647.81,2098.37 2649.52,2100.51 2651.29,2102.57 1515.41,966.685 1513.64,964.629 1511.93,962.485 1510.26,960.249 1508.66,957.924 1507.11,955.509 1505.62,953.003 1504.18,950.408 1502.8,947.723 1501.48,944.948 1500.21,942.082 1499,939.127 1497.84,936.082 1496.74,932.949 1495.7,929.724 1494.71,926.41 1493.78,923.006 1492.9,919.513 1492.08,915.93 1491.32,912.257 1490.61,908.495 1489.96,904.644 1489.37,900.702 1488.83,896.672 1488.35,892.551 1487.93,888.342 1487.56,884.044 1487.25,879.655 1486.99,875.177 1486.79,870.611 1486.65,865.955 1486.57,861.21 1486.54,856.375 1486.54,733.273 1486.5,726.295 1486.4,719.462 1486.23,712.776 1485.99,706.236 1485.68,699.843 1485.3,693.596 1484.85,687.494 1484.33,681.54 1483.74,675.733 1483.09,670.072 1482.36,664.558 1481.57,659.19 1480.71,653.971 1479.77,648.898 1478.77,643.972 1477.7,639.193 1476.56,634.563 1475.35,630.08 1474.07,625.743 1472.72,621.554 1471.3,617.515 1469.81,613.622 1468.25,609.877 1466.63,606.28 1464.93,602.833 1463.16,599.533 1461.32,596.38 1459.42,593.378 1457.44,590.523 1455.4,587.816 "/>
     <path id="_306300768" class="fil1" d="M2362.12 2046.61l0 0zm-1135.88 -1135.88l0 0z"/>
     <path id="_306301032" class="fil1" d="M2366.94 2058.79l0 0zm-1135.88 -1135.88l0 0z"/>
     <path id="_306301056" class="fil1" d="M2332.94 2070.09l0 0zm-1135.88 -1135.88l0 0z"/>
     <polygon id="_306301272" class="fil1" points="940.978,774.301 2076.86,1910.18 2070.77,1904.27 2064.42,1898.66 2057.81,1893.37 2050.96,1888.4 2043.88,1883.76 2036.59,1879.46 2029.09,1875.51 2021.41,1871.92 2013.54,1868.69 2005.52,1865.85 1997.34,1863.38 1989.02,1861.31 1980.58,1859.65 1972.03,1858.4 1963.38,1857.56 1954.64,1857.16 1945.83,1857.2 1936.96,1857.68 1928.05,1858.63 1919.1,1860.03 1917.73,1860.15 1916.49,1859.99 1915.4,1859.6 1914.46,1859.01 1913.67,1858.24 777.787,722.358 778.576,723.123 779.52,723.719 780.612,724.112 781.845,724.267 783.216,724.151 792.166,722.743 801.082,721.801 809.951,721.316 818.761,721.28 827.497,721.681 836.148,722.514 844.7,723.767 853.14,725.432 861.457,727.501 869.635,729.963 877.661,732.812 885.525,736.036 893.212,739.628 900.708,743.578 908.003,747.877 915.081,752.516 921.93,757.488 928.539,762.781 934.892,768.389 "/>
     <polygon id="_306301896" class="fil1" points="988.79,876.72 2124.67,2012.6 2124.71,2012.64 988.827,876.761 "/>
     <path id="_306302088" class="fil1" d="M2070.13 2068.04l0 0zm-1135.88 -1135.88l0 0z"/>
     <polygon id="_306302184" class="fil1" points="916.463,902.176 2052.34,2038.06 2053.03,2038.93 2053.57,2039.94 2053.96,2041.08 918.074,905.194 917.687,904.054 917.146,903.047 "/>
     <path id="_306302064" class="fil1" d="M2060.09 2072.15l0 0zm-1135.88 -1135.88l0 0z"/>
     <polygon id="_306301632" class="fil1" points="850.445,916.83 1986.33,2052.71 1987.35,2053.77 1988.27,2054.89 1989.16,2056.02 1990.08,2057.1 854.195,921.218 853.281,920.141 852.392,919.009 851.467,917.886 "/>
     <polygon id="_306301872" class="fil1" points="898.686,917.26 2034.57,2053.14 2033.97,2053.39 2033.21,2053.71 2032.3,2054.1 2031.24,2054.56 2030.05,2055.08 2028.74,2055.65 2027.31,2056.27 2025.78,2056.94 2024.16,2057.63 2022.46,2058.36 2020.69,2059.11 2018.86,2059.88 2016.99,2060.66 2015.07,2061.44 2013.13,2062.23 2011.18,2063.01 2009.22,2063.77 2007.26,2064.52 2005.32,2065.24 2003.41,2065.94 2001.54,2066.59 1999.71,2067.21 1997.95,2067.78 1996.25,2068.29 1994.64,2068.74 1993.11,2069.13 1991.69,2069.44 1990.38,2069.67 1989.19,2069.82 1988.14,2069.89 1987.24,2069.85 1986.49,2069.71 850.605,933.83 851.356,933.968 852.262,934.003 853.313,933.942 854.499,933.791 855.809,933.556 857.231,933.243 858.754,932.857 860.37,932.405 862.066,931.893 863.832,931.327 865.657,930.712 867.531,930.055 869.442,929.362 871.381,928.638 873.336,927.89 875.297,927.124 877.251,926.345 879.192,925.561 881.105,924.776 882.981,923.996 884.809,923.227 886.579,922.477 888.278,921.751 889.898,921.053 891.427,920.391 892.854,919.771 894.17,919.2 895.361,918.68 896.42,918.22 897.334,917.827 898.093,917.505 "/>
     <polygon id="_306301464" class="fil1" points="842.383,927.556 1978.26,2063.44 1976.75,2063.37 1975.15,2063.26 1973.5,2063.1 1971.8,2062.9 1970.06,2062.67 1968.3,2062.4 1966.54,2062.1 1964.78,2061.77 1963.03,2061.41 1961.32,2061.03 1959.66,2060.63 1958.05,2060.21 1956.51,2059.77 1955.06,2059.32 1953.71,2058.86 1952.47,2058.39 816.586,922.508 817.828,922.977 819.18,923.437 820.632,923.889 822.167,924.326 823.775,924.747 825.441,925.15 827.151,925.53 828.895,925.888 830.656,926.219 832.423,926.52 834.18,926.788 835.918,927.022 837.62,927.219 839.273,927.375 840.865,927.489 "/>
     <path id="_306302160" class="fil1" d="M2242.87 2392.06l0 0zm-1135.88 -1135.88l0 0z"/>
     <path id="_306302016" class="fil1" d="M2030.49 2154.01l0 0zm-1135.88 -1135.88l0 0z"/>
     <polygon id="_306301992" class="fil1" points="811.707,1323.22 1947.59,2459.1 1944.98,2460.29 809.095,1324.4 "/>
     <polygon id="_306301680" class="fil1" points="837.108,1311.47 1972.99,2447.35 1971.65,2448.31 1970.22,2449.26 1968.73,2450.19 1967.18,2451.09 1965.57,2451.97 1963.93,2452.81 1962.26,2453.63 1960.56,2454.41 1958.86,2455.15 1957.17,2455.86 1955.48,2456.52 1953.82,2457.14 1952.19,2457.71 1950.6,2458.23 1949.06,2458.7 1947.59,2459.12 811.712,1323.24 813.183,1322.82 814.716,1322.35 816.304,1321.83 817.934,1321.26 819.598,1320.64 821.285,1319.98 822.983,1319.27 824.683,1318.53 826.375,1317.75 828.048,1316.93 829.692,1316.08 831.296,1315.21 832.849,1314.31 834.343,1313.38 835.766,1312.43 "/>
     <polygon id="_306302928" class="fil1" points="827.782,1129 1963.66,2264.89 1962.47,2265.46 1961.23,2266.02 1959.95,2266.57 1958.65,2267.11 1957.31,2267.63 1955.97,2268.13 1954.61,2268.62 1953.24,2269.09 1951.87,2269.53 1950.51,2269.96 1949.16,2270.35 1947.83,2270.73 1946.52,2271.07 1945.24,2271.38 1944,2271.66 1942.8,2271.91 806.917,1136.03 808.117,1135.78 809.358,1135.5 810.637,1135.19 811.945,1134.84 813.277,1134.47 814.627,1134.07 815.989,1133.65 817.357,1133.21 818.724,1132.74 820.085,1132.25 821.434,1131.74 822.765,1131.22 824.071,1130.69 825.347,1130.14 826.586,1129.58 "/>
     <polygon id="_306302304" class="fil1" points="873.407,1045.23 2009.29,2181.11 2008.24,2182.8 2007.23,2184.71 2006.24,2186.83 2005.28,2189.14 2004.34,2191.63 2003.41,2194.28 2002.5,2197.07 2001.6,2199.98 2000.71,2203.01 1999.81,2206.13 1998.93,2209.32 1998.03,2212.57 1997.14,2215.87 1996.23,2219.19 1995.31,2222.52 1994.37,2225.85 1993.42,2229.15 1992.44,2232.41 1991.44,2235.61 1990.4,2238.74 1989.34,2241.78 1988.24,2244.72 1987.1,2247.53 1985.92,2250.2 1984.69,2252.71 1983.42,2255.05 1982.09,2257.2 1980.71,2259.15 1979.26,2260.87 1977.76,2262.35 1976.19,2263.57 1974.55,2264.53 1973.24,2265.07 1971.89,2265.46 1970.53,2265.7 1969.14,2265.8 1967.76,2265.76 1966.38,2265.59 1965.01,2265.29 1963.66,2264.89 827.782,1129 829.127,1129.41 830.495,1129.71 831.877,1129.87 833.262,1129.91 834.644,1129.82 836.013,1129.58 837.357,1129.19 838.67,1128.64 840.308,1127.69 841.877,1126.47 843.382,1124.99 844.824,1123.26 846.207,1121.32 847.536,1119.17 848.812,1116.83 850.039,1114.32 851.22,1111.65 852.36,1108.84 853.459,1105.9 854.523,1102.86 855.556,1099.73 856.56,1096.53 857.536,1093.27 858.492,1089.97 859.427,1086.64 860.348,1083.31 861.255,1079.99 862.152,1076.69 863.044,1073.44 863.933,1070.24 864.824,1067.13 865.718,1064.1 866.619,1061.19 867.531,1058.4 868.456,1055.75 869.399,1053.26 870.362,1050.95 871.349,1048.83 872.363,1046.91 "/>
     <polygon id="_306302688" class="fil1" points="1144.92,1181.51 2280.8,2317.39 2280.78,2317.39 1144.9,1181.5 "/>
     <polygon id="_306302568" class="fil1" points="934.693,932.257 2070.57,2068.14 2068.87,2067.25 2067.12,2066.37 2065.34,2065.48 2063.53,2064.57 2061.71,2063.64 2059.89,2062.68 2058.08,2061.69 2056.29,2060.64 2054.52,2059.55 2052.8,2058.39 2051.12,2057.17 2049.51,2055.87 2047.97,2054.49 912.086,918.603 913.628,919.987 915.243,921.288 916.918,922.511 918.642,923.668 920.407,924.763 922.201,925.804 924.014,926.801 925.834,927.759 927.653,928.689 929.459,929.594 931.241,930.486 932.989,931.371 "/>
     <path id="_306302328" class="fil1" d="M2095.52 2052.64l0 0zm-1135.88 -1135.88l0 0z"/>
     <polygon id="_306302856" class="fil1" points="948.092,764.698 2083.97,1900.58 2090.17,1907.07 2096.06,1913.86 2101.63,1920.94 2106.87,1928.31 2111.77,1935.95 2116.31,1943.86 2120.48,1952.02 2124.26,1960.42 2127.65,1969.06 2130.62,1977.93 2133.17,1987.02 2135.28,1996.32 999.402,860.435 997.291,851.138 994.741,842.05 991.765,833.181 988.379,824.538 984.595,816.133 980.426,807.973 975.887,800.069 970.989,792.428 965.747,785.062 960.176,777.979 954.285,771.187 "/>
     <polygon id="_306302280" class="fil1" points="1250.96,911.385 2386.84,2047.27 2387.5,2048.31 2387.94,2049.45 2388.14,2050.65 2388.13,2051.87 2387.92,2053.07 2387.51,2054.23 2386.92,2055.3 2386.15,2056.24 2385.21,2057.01 2384.12,2057.59 2382.88,2057.93 2381.5,2058 2380,2057.76 1244.12,921.875 1245.62,922.118 1247,922.051 1248.24,921.709 1249.33,921.132 1250.27,920.353 1251.04,919.413 1251.63,918.347 1252.04,917.192 1252.25,915.985 1252.26,914.764 1252.05,913.566 1251.62,912.427 "/>
     <polygon id="_306302424" class="fil1" points="1244.12,921.875 2380,2057.76 2379.23,2057.57 2378.43,2057.42 2377.63,2057.31 2376.81,2057.23 2375.98,2057.19 2375.15,2057.18 2374.32,2057.2 2373.48,2057.26 2372.64,2057.35 2371.8,2057.47 2370.97,2057.62 2370.14,2057.79 2369.32,2058 2368.51,2058.24 2367.72,2058.5 2366.94,2058.79 1231.05,922.909 1231.84,922.619 1232.63,922.355 1233.44,922.119 1234.26,921.911 1235.09,921.733 1235.92,921.584 1236.76,921.466 1237.6,921.379 1238.44,921.322 1239.27,921.298 1240.1,921.308 1240.93,921.351 1241.74,921.429 1242.55,921.542 1243.34,921.69 "/>
     <polygon id="_306302520" class="fil1" points="1231.05,922.909 2366.94,2058.79 2365.74,2059.26 2364.42,2059.71 2362.98,2060.16 2361.45,2060.6 2359.84,2061.02 2358.17,2061.42 2356.44,2061.8 2354.69,2062.16 2352.91,2062.49 2351.12,2062.79 2349.35,2063.06 2347.6,2063.3 2345.9,2063.5 2344.25,2063.66 2342.67,2063.77 2341.18,2063.84 1205.3,927.959 1206.79,927.89 1208.37,927.774 1210.02,927.616 1211.72,927.418 1213.47,927.181 1215.24,926.911 1217.03,926.609 1218.8,926.277 1220.56,925.919 1222.29,925.536 1223.96,925.135 1225.57,924.714 1227.1,924.278 1228.53,923.831 1229.86,923.374 "/>
     <polygon id="_306302640" class="fil1" points="1202.48,931.22 2338.36,2067.1 2337.78,2067.6 2337.17,2068.06 2336.52,2068.49 2335.84,2068.89 2335.15,2069.25 2334.43,2069.58 2333.69,2069.86 2332.94,2070.09 1197.06,934.208 1197.81,933.973 1198.55,933.693 1199.27,933.37 1199.96,933.009 1200.64,932.61 1201.29,932.177 1201.9,931.713 "/>
     <polygon id="_306303648" class="fil1" points="1205.3,927.959 2341.18,2063.84 2340.87,2064.3 2340.55,2064.74 2340.22,2065.17 2339.88,2065.59 2339.52,2065.99 2339.15,2066.38 2338.77,2066.76 2338.38,2067.11 1202.5,931.233 1202.89,930.874 1203.27,930.498 1203.64,930.108 1204,929.704 1204.34,929.287 1204.67,928.856 1204.99,928.413 "/>
     <polygon id="_306303504" class="fil1" points="1197.06,934.208 2332.94,2070.09 2332.21,2070.22 2331.33,2070.26 2330.3,2070.2 2329.13,2070.05 2327.85,2069.82 2326.46,2069.52 2324.96,2069.14 2323.37,2068.7 2321.7,2068.2 2319.97,2067.64 2318.17,2067.04 2316.32,2066.39 2314.43,2065.71 2312.52,2065 2310.58,2064.26 2308.64,2063.51 2306.7,2062.74 2304.77,2061.96 2302.87,2061.18 2300.99,2060.41 2299.17,2059.65 2297.39,2058.9 2295.68,2058.17 2294.05,2057.47 2292.49,2056.81 2291.04,2056.18 2289.69,2055.59 2288.46,2055.06 2287.35,2054.58 2286.38,2054.17 2285.55,2053.82 2284.89,2053.55 1149.01,917.666 1149.67,917.94 1150.5,918.288 1151.47,918.702 1152.57,919.179 1153.81,919.712 1155.16,920.296 1156.61,920.923 1158.16,921.59 1159.8,922.289 1161.51,923.016 1163.28,923.764 1165.11,924.527 1166.98,925.301 1168.89,926.079 1170.82,926.855 1172.76,927.624 1174.7,928.38 1176.64,929.117 1178.55,929.829 1180.44,930.511 1182.29,931.156 1184.08,931.758 1185.82,932.314 1187.49,932.815 1189.08,933.258 1190.57,933.635 1191.97,933.942 1193.25,934.171 1194.41,934.319 1195.44,934.378 1196.33,934.342 "/>
     <polygon id="_306303576" class="fil1" points="1149.01,917.666 2284.89,2053.55 2275.59,2050.14 1139.71,914.263 "/>
     <polygon id="_306303144" class="fil1" points="1058.96,867.398 2194.84,2003.28 2195.56,2004.38 2195.97,2005.5 2196.12,2006.63 2196.07,2007.78 2195.87,2008.95 2195.56,2010.12 2195.21,2011.3 2194.85,2012.49 1058.96,876.605 1059.32,875.42 1059.68,874.238 1059.99,873.064 1060.19,871.901 1060.24,870.749 1060.09,869.614 1059.68,868.496 "/>
     <polygon id="_306303000" class="fil1" points="1059.04,876.572 2194.92,2012.45 2195.7,2013.53 2196.3,2014.59 2196.75,2015.65 2197.06,2016.71 2197.27,2017.79 2197.38,2018.88 2197.44,2020.01 2197.45,2021.18 2197.44,2022.39 2197.44,2023.67 2197.47,2025.01 2197.54,2026.42 2197.69,2027.92 2197.94,2029.52 2198.3,2031.21 2198.8,2033.02 1062.92,897.138 1062.41,895.329 1062.05,893.633 1061.81,892.04 1061.66,890.539 1061.59,889.124 1061.56,887.783 1061.56,886.51 1061.57,885.294 1061.56,884.127 1061.5,883 1061.38,881.904 1061.18,880.829 1060.87,879.768 1060.42,878.71 1059.82,877.648 "/>
     <path id="_306303216" class="fil1" d="M2198.79 2033.03l0 0zm-1135.88 -1135.88l0 0z"/>
     <polygon id="_306303168" class="fil1" points="1004.58,862.086 2140.46,1997.97 2141.23,1998.89 2141.82,1999.9 2142.21,2000.95 1006.33,865.065 1005.94,864.018 1005.34,863.01 "/>
     <polygon id="_306303264" class="fil1" points="1152.96,1031.97 2288.84,2167.85 2288.71,2168.82 1152.82,1032.93 "/>
     <polygon id="_306303384" class="fil1" points="1152.68,1046.12 2288.56,2182 2288.36,2223.52 1152.48,1087.64 "/>
     <polygon id="_306303480" class="fil1" points="1006.33,865.065 2142.21,2000.95 2142.33,2001.42 2142.45,2001.9 2142.57,2002.37 2142.69,2002.83 2142.8,2003.29 2142.92,2003.75 2143.02,2004.2 2143.13,2004.64 1007.25,868.758 1007.14,868.313 1007.03,867.863 1006.92,867.408 1006.81,866.949 1006.69,866.485 1006.57,866.016 1006.45,865.542 "/>
     <polygon id="_306303696" class="fil1" points="1007.36,868.113 2143.24,2004 2143.15,2003.92 1007.27,868.041 "/>
     <polygon id="_306304032" class="fil1" points="1153.27,997.315 2289.15,2133.2 2289.17,2134.39 2289.18,2135.84 2289.18,2137.52 2289.18,2139.4 2289.17,2141.45 2289.15,2143.66 2289.13,2145.99 2289.11,2148.41 2289.08,2150.89 2289.05,2153.42 2289.01,2155.95 2288.98,2158.47 2288.95,2160.95 2288.91,2163.36 2288.88,2165.67 2288.84,2167.85 1152.96,1031.97 1153,1029.78 1153.03,1027.47 1153.06,1025.07 1153.1,1022.59 1153.13,1020.07 1153.17,1017.53 1153.2,1015.01 1153.22,1012.52 1153.25,1010.1 1153.27,1007.78 1153.28,1005.57 1153.3,1003.51 1153.3,1001.63 1153.3,999.955 1153.28,998.506 "/>
     <polygon id="_306304440" class="fil1" points="1220.21,1129.52 2356.09,2265.4 2354.74,2265.81 2353.38,2266.1 2351.99,2266.27 2350.61,2266.31 2349.23,2266.21 2347.86,2265.97 2346.51,2265.58 2345.2,2265.04 1209.32,1129.16 1210.63,1129.7 1211.98,1130.09 1213.34,1130.33 1214.73,1130.43 1216.11,1130.39 1217.5,1130.22 1218.86,1129.92 "/>
     <polygon id="_306303768" class="fil1" points="1209.32,1129.16 2345.2,2265.04 2343.56,2264.09 2341.99,2262.86 2340.49,2261.38 1204.61,1125.5 1206.11,1126.98 1207.68,1128.21 "/>
     <path id="_306304296" class="fil1" d="M2306.84 2168.96l0 0zm-1135.88 -1135.88l0 0z"/>
     <polygon id="_306303816" class="fil1" points="1174.59,1045.74 2310.47,2181.62 2309.36,2181.94 2308.18,2182.2 2306.94,2182.42 2305.65,2182.58 2304.31,2182.7 2302.93,2182.78 2301.52,2182.82 2300.08,2182.83 2298.63,2182.8 2297.16,2182.74 2295.69,2182.66 2294.23,2182.56 2292.77,2182.44 2291.34,2182.3 2289.93,2182.16 2288.56,2182 1152.68,1046.12 1154.05,1046.27 1155.46,1046.42 1156.89,1046.56 1158.34,1046.68 1159.81,1046.78 1161.28,1046.86 1162.74,1046.92 1164.2,1046.94 1165.64,1046.94 1167.05,1046.9 1168.43,1046.82 1169.77,1046.7 1171.06,1046.53 1172.3,1046.32 1173.48,1046.06 "/>
     <polygon id="_306304248" class="fil1" points="918.074,905.194 2053.96,2041.08 2054.15,2041.58 2054.49,2042.16 2054.95,2042.79 2055.52,2043.46 2056.16,2044.15 920.279,908.27 919.634,907.579 919.07,906.909 918.608,906.277 918.269,905.7 "/>
     <polygon id="_306304104" class="fil1" points="1152.48,1087.64 2288.36,2223.52 2288.42,2224.99 2288.46,2226.57 2288.49,2228.25 2288.5,2230.02 2288.49,2231.88 2288.47,2233.81 2288.43,2235.82 2288.38,2237.9 2288.32,2240.03 2288.25,2242.21 2288.17,2244.45 2288.07,2246.71 2287.97,2249.01 2287.86,2251.34 2287.74,2253.68 2287.62,2256.03 2287.48,2258.39 2287.34,2260.75 2287.2,2263.09 2287.06,2265.42 2286.91,2267.72 2286.76,2270 2286.6,2272.24 2286.45,2274.43 2286.29,2276.57 2286.14,2278.66 2285.99,2280.68 2285.84,2282.63 2285.69,2284.5 2285.55,2286.29 2285.41,2287.98 2285.27,2289.58 1149.39,1153.7 1149.53,1152.1 1149.66,1150.41 1149.81,1148.62 1149.96,1146.75 1150.11,1144.8 1150.26,1142.78 1150.41,1140.69 1150.57,1138.55 1150.72,1136.35 1150.87,1134.12 1151.03,1131.84 1151.18,1129.54 1151.32,1127.21 1151.46,1124.86 1151.6,1122.51 1151.73,1120.15 1151.86,1117.8 1151.98,1115.46 1152.09,1113.13 1152.19,1110.83 1152.29,1108.56 1152.37,1106.33 1152.44,1104.15 1152.5,1102.01 1152.55,1099.94 1152.59,1097.93 1152.61,1095.99 1152.62,1094.14 1152.61,1092.37 1152.58,1090.69 1152.54,1089.11 "/>
     <polygon id="_306304392" class="fil1" points="1149.36,1153.82 2285.24,2289.7 2285.18,2289.75 1149.3,1153.87 "/>
     <polygon id="_306304344" class="fil1" points="1149.3,1153.87 2285.18,2289.75 2285.13,2289.81 1149.25,1153.93 "/>
     <polygon id="_306303960" class="fil1" points="1184.48,1160.3 2320.36,2296.19 2321.39,2297.45 2322.19,2298.92 1186.31,1163.04 1185.51,1161.57 "/>
     <polygon id="_306304800" class="fil1" points="1144.9,1181.5 2280.78,2317.39 2280.16,2319.54 2279.33,2321.56 2278.39,2323.41 2277.42,2325.05 2276.51,2326.43 2275.74,2327.53 2275.2,2328.3 2274.97,2328.7 1139.09,1192.82 1139.32,1192.42 1139.86,1191.65 1140.63,1190.55 1141.54,1189.17 1142.51,1187.53 1143.45,1185.68 1144.28,1183.66 "/>
     <polygon id="_306304512" class="fil1" points="850.605,933.83 1986.49,2069.71 1985.22,2069.28 1984.02,2068.73 1982.88,2068.07 1981.81,2067.32 1980.81,2066.46 844.928,930.582 845.927,931.433 846.998,932.192 848.135,932.85 849.338,933.399 "/>
     <polygon id="_306304944" class="fil1" points="1147.56,1167.04 2283.44,2302.92 2283.46,2302.95 1147.58,1167.07 "/>
     <path id="_306304896" class="fil1" d="M2322.18 2298.92l0 0zm-1135.88 -1135.88l0 0z"/>
     <polygon id="_306305064" class="fil1" points="1149.6,1153.75 2285.48,2289.63 2285.24,2289.7 1149.36,1153.82 "/>
     <polygon id="_306305088" class="fil1" points="1128.39,1222.34 2264.27,2358.22 2263.51,2359.15 2262.74,2359.92 2261.98,2360.56 2261.23,2361.09 2260.48,2361.51 2259.74,2361.86 2259.01,2362.14 2258.29,2362.38 1122.41,1226.5 1123.13,1226.26 1123.86,1225.98 1124.6,1225.63 1125.34,1225.2 1126.1,1224.68 1126.86,1224.04 1127.63,1223.27 "/>
     <polygon id="_306305136" class="fil1" points="816.586,922.508 1952.47,2058.39 1951.72,2058.11 1950.94,2057.85 1950.15,2057.61 1949.35,2057.41 1948.53,2057.23 1947.7,2057.08 1946.87,2056.96 1946.03,2056.87 1945.19,2056.82 1944.35,2056.79 1943.51,2056.8 1942.67,2056.84 1941.85,2056.92 1941.03,2057.03 1940.23,2057.19 1939.45,2057.37 803.566,921.491 804.351,921.303 805.153,921.152 805.968,921.039 806.793,920.961 807.627,920.918 808.465,920.91 809.306,920.933 810.147,920.991 810.987,921.08 811.822,921.198 812.649,921.348 813.466,921.525 814.271,921.731 815.062,921.964 815.834,922.223 "/>
     <polygon id="_306305160" class="fil1" points="1139.09,1192.82 2274.97,2328.7 2274.67,2330.22 2274.32,2331.87 2273.93,2333.63 2273.49,2335.48 2273,2337.42 2272.47,2339.4 2271.88,2341.43 2271.25,2343.48 2270.56,2345.52 2269.82,2347.54 2269.03,2349.53 2268.19,2351.46 2267.29,2353.31 2266.34,2355.07 2265.33,2356.71 2264.27,2358.22 1128.39,1222.34 1129.45,1220.83 1130.46,1219.19 1131.41,1217.43 1132.31,1215.58 1133.15,1213.65 1133.94,1211.66 1134.68,1209.64 1135.36,1207.59 1136,1205.55 1136.59,1203.52 1137.12,1201.53 1137.61,1199.6 1138.05,1197.75 1138.44,1195.98 1138.79,1194.34 "/>
     <polygon id="_306305232" class="fil1" points="1175.52,1171.37 2311.4,2307.25 2309.95,2307.33 2308.43,2307.34 2306.85,2307.29 2305.22,2307.18 2303.54,2307.01 2301.82,2306.8 2300.06,2306.54 2298.27,2306.25 2296.45,2305.91 2294.62,2305.55 2292.76,2305.15 2290.9,2304.74 2289.03,2304.3 2287.16,2303.85 2285.3,2303.39 2283.44,2302.92 1147.56,1167.04 1149.42,1167.51 1151.28,1167.97 1153.15,1168.42 1155.02,1168.85 1156.88,1169.27 1158.74,1169.66 1160.57,1170.03 1162.39,1170.36 1164.18,1170.66 1165.94,1170.92 1167.66,1171.13 1169.33,1171.3 1170.97,1171.41 1172.54,1171.46 1174.07,1171.45 "/>
     <path id="_306305208" class="fil1" d="M2311.51 2294.02l0 0zm-1135.88 -1135.88l0 0z"/>
     <polygon id="_306304632" class="fil1" points="1147.78,1167.23 2283.66,2303.11 2280.8,2317.39 1144.92,1181.51 "/>
     <polygon id="_306305520" class="fil1" points="1186.31,1163.04 2322.19,2298.92 2323,2300.91 2323.8,2303.02 2324.57,2305.24 2325.33,2307.58 2326.08,2310.02 2326.81,2312.55 2327.52,2315.17 2328.22,2317.87 2328.91,2320.65 2329.57,2323.49 2330.23,2326.39 2330.87,2329.35 2331.49,2332.35 2332.1,2335.39 2332.7,2338.46 2333.28,2341.55 2333.85,2344.67 2334.4,2347.79 2334.95,2350.92 2335.47,2354.04 2335.99,2357.15 2336.49,2360.25 2336.99,2363.32 2337.46,2366.36 2337.93,2369.36 2338.38,2372.32 2338.83,2375.22 2339.26,2378.06 2339.68,2380.84 2340.09,2383.54 2340.49,2386.16 2340.87,2388.69 2341.06,2389.97 2341.22,2391.29 2341.36,2392.65 2341.49,2394.05 2341.61,2395.48 2341.72,2396.95 2341.81,2398.44 2341.9,2399.95 2341.98,2401.48 2342.07,2403.02 2342.14,2404.58 2342.22,2406.14 2342.31,2407.71 2342.4,2409.28 2342.49,2410.84 2342.59,2412.4 2342.71,2413.94 2342.84,2415.47 2342.98,2416.98 2343.14,2418.47 2343.32,2419.93 2343.52,2421.36 2343.74,2422.76 2343.99,2424.12 2344.27,2425.45 2344.58,2426.72 2344.91,2427.95 2345.28,2429.12 2345.69,2430.24 2346.13,2431.3 2346.61,2432.3 2347.14,2433.23 1211.26,1297.34 1210.73,1296.41 1210.25,1295.42 1209.81,1294.36 1209.4,1293.24 1209.03,1292.07 1208.69,1290.84 1208.39,1289.56 1208.11,1288.24 1207.86,1286.88 1207.64,1285.48 1207.44,1284.05 1207.26,1282.59 1207.1,1281.1 1206.96,1279.59 1206.83,1278.06 1206.71,1276.51 1206.61,1274.96 1206.51,1273.39 1206.43,1271.83 1206.34,1270.26 1206.26,1268.7 1206.18,1267.14 1206.1,1265.6 1206.02,1264.07 1205.93,1262.55 1205.83,1261.07 1205.73,1259.6 1205.61,1258.17 1205.48,1256.77 1205.34,1255.41 1205.17,1254.08 1204.99,1252.81 1204.6,1250.28 1204.21,1247.65 1203.8,1244.95 1203.38,1242.18 1202.95,1239.34 1202.5,1236.43 1202.05,1233.48 1201.58,1230.48 1201.1,1227.44 1200.61,1224.37 1200.11,1221.27 1199.59,1218.16 1199.06,1215.04 1198.52,1211.91 1197.97,1208.78 1197.4,1205.67 1196.82,1202.57 1196.22,1199.5 1195.61,1196.46 1194.98,1193.46 1194.35,1190.51 1193.69,1187.61 1193.02,1184.76 1192.34,1181.99 1191.64,1179.29 1190.93,1176.67 1190.2,1174.13 1189.45,1171.7 1188.69,1169.36 1187.92,1167.13 1187.12,1165.02 "/>
     <path id="_306305472" class="fil1" d="M2380.16 2447.68l0 0zm-1135.88 -1135.88l0 0z"/>
     <polygon id="_306305496" class="fil1" points="1235.48,1322.21 2371.36,2458.09 2369.9,2457.68 2368.38,2457.21 2366.79,2456.68 2365.16,2456.11 2363.49,2455.49 2361.8,2454.82 2360.1,2454.11 2358.39,2453.37 2356.69,2452.59 2355.01,2451.77 2353.36,2450.92 2351.75,2450.05 2350.19,2449.15 2348.7,2448.23 2347.28,2447.3 2345.95,2446.34 1210.07,1310.46 1211.4,1311.41 1212.82,1312.35 1214.31,1313.27 1215.87,1314.17 1217.48,1315.04 1219.13,1315.89 1220.81,1316.7 1222.51,1317.49 1224.22,1318.23 1225.92,1318.94 1227.61,1319.61 1229.28,1320.23 1230.91,1320.8 1232.5,1321.33 1234.02,1321.8 "/>
     <polygon id="_306305424" class="fil1" points="803.566,921.491 1939.45,2057.37 1937.95,2057.62 1936.57,2057.55 1935.34,2057.21 1934.24,2056.63 1933.31,2055.86 797.427,919.974 798.363,920.751 799.455,921.329 800.692,921.67 802.066,921.737 "/>
     <polygon id="_306305904" class="fil1" points="874.631,1045.56 2010.51,2181.45 2010.35,2181.41 2010.2,2181.37 2010.04,2181.33 2009.89,2181.29 2009.74,2181.25 2009.59,2181.2 2009.44,2181.16 2009.29,2181.11 873.407,1045.23 873.556,1045.27 873.706,1045.32 873.857,1045.36 874.009,1045.41 874.163,1045.45 874.318,1045.49 874.474,1045.53 "/>
     <polygon id="_306305616" class="fil1" points="1069.98,1286.02 2205.86,2421.9 2204.72,2423.73 2203.54,2425.53 2202.32,2427.28 2201.06,2428.99 2199.75,2430.62 2198.39,2432.18 2196.97,2433.65 2195.48,2435.01 2193.94,2436.25 2192.32,2437.35 2190.64,2438.31 2188.87,2439.11 2187.03,2439.74 2185.1,2440.19 2183.08,2440.43 2180.97,2440.47 1045.09,1304.59 1047.2,1304.55 1049.22,1304.31 1051.15,1303.86 1052.99,1303.23 1054.75,1302.43 1056.44,1301.47 1058.06,1300.36 1059.6,1299.12 1061.08,1297.76 1062.51,1296.3 1063.87,1294.74 1065.18,1293.1 1066.44,1291.4 1067.66,1289.64 1068.84,1287.85 "/>
     <polygon id="_306305664" class="fil1" points="1077.22,1285.75 2213.1,2421.63 2206.03,2423.25 1070.15,1287.37 "/>
     <polygon id="_306305736" class="fil1" points="1070.15,1287.37 2206.03,2423.25 2205.96,2423.24 1070.07,1287.36 "/>
     <polygon id="_306305808" class="fil1" points="895.313,1045.61 2031.19,2181.49 2029.88,2181.64 2028.56,2181.78 2027.22,2181.91 2025.87,2182.03 2024.52,2182.13 2023.16,2182.21 2021.82,2182.27 2020.47,2182.3 2019.14,2182.31 2017.83,2182.29 2016.54,2182.25 2015.27,2182.17 2014.02,2182.05 2012.81,2181.89 2011.64,2181.7 2010.51,2181.46 874.626,1045.58 875.76,1045.82 876.933,1046.01 878.143,1046.17 879.385,1046.28 880.655,1046.36 881.95,1046.41 883.263,1046.43 884.593,1046.42 885.935,1046.38 887.284,1046.32 888.637,1046.24 889.99,1046.14 891.337,1046.03 892.677,1045.9 894.003,1045.76 "/>
     <path id="_306306000" class="fil1" d="M2007.71 2295.11l0 0zm-1135.88 -1135.88l0 0z"/>
     <path id="_306305304" class="fil1" d="M1996.82 2299.87l0 0zm-1135.88 -1135.88l0 0z"/>
     <polygon id="_306306432" class="fil1" points="806.917,1136.03 1942.8,2271.91 1940.07,2272.9 804.188,1137.02 "/>
     <polygon id="_306306744" class="fil1" points="804.188,1137.02 1940.07,2272.9 1938.28,2273.59 1936.42,2274.16 1934.55,2274.65 1932.73,2275.1 1931.04,2275.55 1929.55,2276.03 1928.32,2276.59 1927.42,2277.27 791.535,1141.39 792.438,1140.71 793.67,1140.15 795.164,1139.67 796.853,1139.22 798.667,1138.77 800.54,1138.28 802.403,1137.7 "/>
     <polygon id="_306306240" class="fil1" points="791.535,1141.39 1927.42,2277.27 1926.26,2278.26 1925.05,2278.92 1923.82,2279.27 1922.59,2279.34 1921.38,2279.17 1920.24,2278.77 1919.17,2278.16 1918.22,2277.39 782.342,1141.51 783.291,1142.28 784.354,1142.88 785.501,1143.29 786.705,1143.46 787.938,1143.39 789.172,1143.03 790.38,1142.38 "/>
     <polygon id="_306306456" class="fil1" points="871.694,1172.4 2007.58,2308.28 2006.89,2310.22 2006.22,2312.26 2005.56,2314.4 2004.91,2316.62 2004.27,2318.94 2003.64,2321.33 2003.03,2323.8 2002.42,2326.33 2001.83,2328.92 2001.25,2331.57 2000.68,2334.27 2000.12,2337.01 1999.57,2339.78 1999.03,2342.59 1998.5,2345.43 1997.98,2348.28 1997.48,2351.15 1996.98,2354.02 1996.49,2356.89 1996.02,2359.76 1995.55,2362.62 1995.1,2365.47 1994.65,2368.28 1994.22,2371.08 1993.79,2373.83 1993.37,2376.55 1992.97,2379.22 1992.57,2381.84 1992.19,2384.4 1991.81,2386.89 1991.44,2389.32 1991.08,2391.66 1990.87,2393.15 1990.69,2394.67 1990.53,2396.23 1990.39,2397.81 1990.26,2399.42 1990.16,2401.05 1990.06,2402.71 1989.97,2404.38 1989.88,2406.06 1989.8,2407.76 1989.71,2409.47 1989.62,2411.18 1989.52,2412.9 1989.42,2414.62 1989.3,2416.34 1989.16,2418.05 1989,2419.75 1988.82,2421.45 1988.61,2423.13 1988.37,2424.79 1988.11,2426.43 1987.8,2428.06 1987.46,2429.65 1987.07,2431.23 1986.65,2432.76 1986.17,2434.27 1985.64,2435.74 1985.06,2437.17 1984.42,2438.56 1983.73,2439.91 1982.96,2441.21 1982.14,2442.46 1981.1,2443.75 1980.04,2444.75 1978.96,2445.51 1977.84,2446.07 1976.69,2446.49 1975.5,2446.82 1974.27,2447.1 1973,2447.38 837.12,1311.5 838.393,1311.22 839.622,1310.94 840.809,1310.61 841.958,1310.19 843.074,1309.63 844.159,1308.87 845.22,1307.87 846.257,1306.57 847.084,1305.33 847.846,1304.03 848.542,1302.68 849.18,1301.29 849.761,1299.86 850.288,1298.39 850.764,1296.88 851.193,1295.34 851.577,1293.77 851.919,1292.17 852.224,1290.55 852.492,1288.91 852.728,1287.24 852.936,1285.56 853.117,1283.87 853.275,1282.17 853.414,1280.45 853.536,1278.74 853.644,1277.02 853.74,1275.3 853.83,1273.59 853.915,1271.88 853.999,1270.18 854.085,1268.5 854.175,1266.82 854.274,1265.17 854.383,1263.54 854.507,1261.93 854.648,1260.34 854.808,1258.79 854.992,1257.27 855.203,1255.78 855.561,1253.43 855.928,1251.01 856.305,1248.51 856.691,1245.96 857.088,1243.34 857.493,1240.67 857.909,1237.95 858.335,1235.19 858.77,1232.4 859.216,1229.58 859.671,1226.74 860.137,1223.88 860.613,1221.01 861.099,1218.14 861.596,1215.26 862.103,1212.4 862.62,1209.54 863.149,1206.71 863.688,1203.9 864.237,1201.12 864.798,1198.38 865.368,1195.69 865.951,1193.04 866.544,1190.45 867.148,1187.91 867.764,1185.45 868.391,1183.06 869.029,1180.74 869.677,1178.51 870.338,1176.38 871.011,1174.33 "/>
     <polygon id="_306306096" class="fil1" points="950.984,1263.71 2086.87,2399.59 2085.8,2399.21 2084.67,2398.75 2083.48,2398.18 2082.23,2397.45 2080.93,2396.51 2079.61,2395.33 943.726,1259.45 945.053,1260.63 946.345,1261.56 947.594,1262.3 948.791,1262.87 949.924,1263.33 "/>
     <polygon id="_306306288" class="fil1" points="971.221,1285.92 2107.1,2421.8 2105.12,2420.86 969.237,1284.98 "/>
     <polygon id="_306306648" class="fil1" points="969.237,1284.98 2105.12,2420.86 2103.53,2419.85 2101.93,2418.61 2100.34,2417.18 964.456,1281.3 966.052,1282.73 967.65,1283.97 "/>
     <polygon id="_306306144" class="fil1" points="974.114,1286.78 2109.99,2422.67 2107.1,2421.8 971.221,1285.92 "/>
     <polygon id="_306306720" class="fil1" points="900.36,1167.89 2036.24,2303.77 2034.35,2304.25 2032.44,2304.73 2030.53,2305.19 2028.62,2305.64 2026.71,2306.07 2024.81,2306.48 2022.93,2306.86 2021.06,2307.21 2019.22,2307.52 2017.42,2307.79 2015.65,2308.02 2013.93,2308.19 2012.25,2308.31 2010.63,2308.36 2009.07,2308.36 2007.58,2308.28 871.694,1172.4 873.19,1172.47 874.751,1172.48 876.372,1172.42 878.048,1172.31 879.772,1172.14 881.539,1171.91 883.344,1171.64 885.18,1171.33 887.044,1170.98 888.928,1170.6 890.828,1170.19 892.737,1169.76 894.65,1169.31 896.563,1168.84 898.468,1168.37 "/>
     <polygon id="_306306216" class="fil1" points="978.017,1286 2113.9,2421.89 2113.87,2422.42 2113.88,2422.8 2113.89,2423.06 2113.83,2423.2 2113.67,2423.25 2113.33,2423.23 2112.77,2423.14 2111.94,2423.02 976.061,1287.13 976.893,1287.26 977.449,1287.35 977.785,1287.37 977.952,1287.32 978.005,1287.17 977.998,1286.92 977.984,1286.53 "/>
     <path id="_306307224" class="fil1" d="M2105.12 2420.86l0 0zm-1135.88 -1135.88l0 0z"/>
     <polygon id="_306307536" class="fil1" points="1020.76,1312.51 2156.64,2448.39 2155.47,2448.18 2154.26,2447.93 2153.04,2447.63 2151.8,2447.29 2150.55,2446.91 2149.3,2446.49 2148.06,2446.02 2146.83,2445.51 2145.62,2444.97 2144.44,2444.38 2143.29,2443.75 2142.19,2443.08 2141.13,2442.38 2140.13,2441.63 2139.19,2440.85 1003.31,1304.97 1004.25,1305.75 1005.25,1306.5 1006.31,1307.2 1007.41,1307.87 1008.56,1308.5 1009.74,1309.08 1010.95,1309.63 1012.18,1310.14 1013.42,1310.6 1014.67,1311.03 1015.92,1311.41 1017.16,1311.75 1018.38,1312.05 1019.58,1312.3 "/>
     <polygon id="_306307368" class="fil1" points="809.095,1324.4 1944.98,2460.29 1943.27,2461.09 1941.46,2461.78 1939.63,2462.4 1937.86,2462.97 1936.2,2463.54 1934.73,2464.13 1933.53,2464.79 1932.67,2465.54 796.791,1329.66 797.653,1328.9 798.853,1328.25 800.318,1327.66 801.975,1327.09 803.754,1326.51 805.581,1325.9 807.386,1325.21 "/>
     <polygon id="_306307008" class="fil1" points="796.791,1329.66 1932.67,2465.54 1931.6,2466.61 1930.44,2467.35 1929.24,2467.79 1928.01,2467.96 1926.8,2467.87 1925.62,2467.55 1924.52,2467.03 1923.51,2466.33 787.633,1330.45 788.639,1331.15 789.744,1331.67 790.918,1331.99 792.132,1332.08 793.355,1331.91 794.56,1331.47 795.715,1330.73 "/>
     <polygon id="_306306840" class="fil1" points="1106.99,1256.17 2242.87,2392.06 2241.22,2394.2 2239.56,2395.88 2237.94,2397.16 2236.43,2398.1 2235.11,2398.75 2234.03,2399.17 2233.28,2399.43 2232.91,2399.59 2232.72,2399.85 2232.31,2400.48 2231.71,2401.42 2230.93,2402.63 2229.98,2404.07 2228.89,2405.68 2227.66,2407.43 2226.31,2409.26 2224.86,2411.14 2223.33,2413.01 2221.72,2414.84 2220.05,2416.57 2218.34,2418.16 2216.6,2419.56 2214.85,2420.73 2213.1,2421.63 1077.22,1285.75 1078.97,1284.85 1080.72,1283.68 1082.46,1282.27 1084.17,1280.68 1085.83,1278.95 1087.44,1277.13 1088.98,1275.26 1090.43,1273.38 1091.78,1271.55 1093.01,1269.8 1094.1,1268.18 1095.05,1266.75 1095.83,1265.54 1096.43,1264.6 1096.84,1263.97 1097.03,1263.7 1097.4,1263.55 1098.15,1263.29 1099.22,1262.87 1100.55,1262.21 1102.06,1261.28 1103.68,1260 1105.34,1258.32 "/>
     <path id="_306307560" class="fil1" d="M2353.72 2435.8l0 0zm-1135.88 -1135.88l0 0z"/>
     <polygon id="_306306912" class="fil1" points="1045.09,1304.59 2180.97,2440.47 2179.89,2441.41 2178.69,2442.32 2177.38,2443.19 2175.97,2444.02 2174.47,2444.81 2172.91,2445.54 2171.3,2446.2 2169.64,2446.8 2167.96,2447.33 2166.27,2447.77 2164.58,2448.13 2162.9,2448.4 2161.25,2448.56 2159.65,2448.62 2158.11,2448.57 2156.64,2448.39 1020.76,1312.51 1022.23,1312.68 1023.77,1312.74 1025.37,1312.68 1027.02,1312.51 1028.69,1312.25 1030.39,1311.89 1032.08,1311.45 1033.76,1310.92 1035.42,1310.32 1037.03,1309.65 1038.59,1308.92 1040.08,1308.14 1041.5,1307.31 1042.81,1306.43 1044.01,1305.52 "/>
     <path id="_306307344" class="fil1" d="M2113.91 2421.93l0 0zm-1135.88 -1135.88l0 0z"/>
     <polygon id="_306306864" class="fil1" points="1001.51,1304.13 2137.39,2440.01 2136.35,2439.91 2135.26,2439.79 2134.12,2439.61 2132.93,2439.36 2131.69,2439.01 2130.39,2438.54 2129.03,2437.93 2127.62,2437.14 2126.14,2436.16 2124.6,2434.97 2122.99,2433.53 987.113,1297.65 988.718,1299.08 990.259,1300.28 991.737,1301.26 993.153,1302.05 994.51,1302.66 995.811,1303.13 997.053,1303.48 998.244,1303.73 999.381,1303.91 1000.47,1304.03 "/>
     <polygon id="_306307056" class="fil1" points="1002.44,1304.14 2138.32,2440.02 2137.39,2440.04 1001.51,1304.15 "/>
     <polygon id="_306307176" class="fil1" points="976.061,1287.13 2111.94,2423.02 2109.99,2422.67 974.114,1286.78 "/>
     <polygon id="_306307728" class="fil1" points="1238.13,1323.37 2374.01,2459.25 2371.36,2458.09 1235.48,1322.21 "/>
     <polygon id="_306307752" class="fil1" points="1260.53,1320.27 2396.41,2456.16 2397.26,2457.41 2397.77,2458.69 2397.98,2459.95 2397.91,2461.19 2397.6,2462.36 2397.06,2463.46 2396.35,2464.44 2395.47,2465.3 2394.46,2466 2393.36,2466.52 2392.18,2466.84 2390.97,2466.93 2389.74,2466.77 2388.54,2466.33 2387.38,2465.58 1251.5,1329.7 1252.66,1330.44 1253.86,1330.88 1255.09,1331.05 1256.3,1330.96 1257.47,1330.64 1258.58,1330.12 1259.59,1329.42 1260.46,1328.56 1261.18,1327.57 1261.72,1326.48 1262.03,1325.3 1262.1,1324.07 1261.89,1322.8 1261.38,1321.53 "/>
     <path id="_306308112" class="fil1" d="M2374.01 2459.25l0 0zm-1135.88 -1135.88l0 0z"/>
     <polygon id="_306308160" class="fil1" points="1122.41,1226.5 2258.29,2362.38 2257.6,2364.06 2256.86,2365.81 2256.07,2367.61 2255.25,2369.46 2254.38,2371.35 2253.48,2373.26 2252.54,2375.2 2251.57,2377.14 2250.57,2379.09 2249.54,2381.03 2248.48,2382.96 2247.4,2384.86 2246.3,2386.73 2245.17,2388.56 2244.03,2390.34 2242.87,2392.06 1106.99,1256.17 1108.15,1254.45 1109.29,1252.68 1110.42,1250.85 1111.52,1248.98 1112.6,1247.07 1113.66,1245.15 1114.69,1243.21 1115.69,1241.26 1116.66,1239.31 1117.6,1237.38 1118.5,1235.46 1119.37,1233.58 1120.19,1231.73 1120.98,1229.93 1121.72,1228.18 "/>
     <path id="_306308280" class="fil1" d="M2336.84 2441.41l0 0zm-1135.88 -1135.88l0 0z"/>
     <polygon id="_306307632" class="fil1" points="1210.07,1310.46 2345.95,2446.34 2345.48,2446.23 2344.68,2446.1 2343.61,2445.89 2342.36,2445.53 2340.99,2444.97 2339.56,2444.14 2338.16,2442.97 1202.28,1307.09 1203.68,1308.26 1205.1,1309.09 1206.48,1309.65 1207.73,1310 1208.8,1310.21 1209.6,1310.34 "/>
     <polygon id="_306307824" class="fil1" points="1250.43,1328.63 2386.31,2464.51 2385.45,2463.76 2384.25,2463.11 2382.78,2462.51 2381.13,2461.94 2379.35,2461.37 2377.53,2460.75 2375.72,2460.06 2374.01,2459.25 1238.13,1323.37 1239.84,1324.17 1241.64,1324.87 1243.47,1325.49 1245.25,1326.06 1246.9,1326.63 1248.37,1327.22 1249.56,1327.88 "/>
     <polygon id="_306307872" class="fil1" points="1259.54,1319.17 2395.42,2455.05 2396.41,2456.16 1260.53,1320.27 "/>
     <polygon id="_306308064" class="fil1" points="1451.27,1466.01 2587.15,2601.9 2584.9,2604.15 2582.52,2606.33 2580.01,2608.43 2577.37,2610.47 2574.61,2612.44 2571.72,2614.33 2568.71,2616.16 2565.57,2617.91 2562.29,2619.59 2558.9,2621.2 2555.38,2622.74 2551.73,2624.21 2547.95,2625.6 2544.05,2626.93 2540.02,2628.18 2535.86,2629.37 2531.58,2630.48 2527.17,2631.52 2522.64,2632.49 2517.98,2633.38 2513.2,2634.21 2508.28,2634.96 2503.25,2635.64 2498.09,2636.25 2492.8,2636.79 2487.39,2637.26 2481.85,2637.65 2476.19,2637.98 2470.4,2638.23 2464.49,2638.41 2458.45,2638.52 2452.29,2638.55 2428.43,2638.55 1292.55,1502.67 1316.41,1502.67 1322.57,1502.63 1328.61,1502.53 1334.52,1502.35 1340.31,1502.09 1345.97,1501.77 1351.51,1501.38 1356.92,1500.91 1362.21,1500.37 1367.37,1499.76 1372.4,1499.08 1377.31,1498.32 1382.1,1497.5 1386.76,1496.6 1391.29,1495.63 1395.7,1494.6 1399.98,1493.48 1404.14,1492.3 1408.17,1491.05 1412.07,1489.72 1415.84,1488.33 1419.49,1486.86 1423.02,1485.32 1426.41,1483.71 1429.68,1482.03 1432.83,1480.27 1435.84,1478.45 1438.73,1476.56 1441.49,1474.59 1444.13,1472.55 1446.64,1470.44 1449.01,1468.26 "/>
     <polygon id="_306308232" class="fil1" points="1182.77,1034.87 2318.66,2170.75 2319.44,2171.73 2320.19,2172.72 2320.91,2173.72 2321.6,2174.74 2322.26,2175.76 2322.89,2176.8 2323.5,2177.86 2324.09,2178.92 2324.65,2180.01 2325.19,2181.1 2325.71,2182.21 2326.21,2183.34 2326.69,2184.48 2327.15,2185.64 2327.6,2186.82 2328.04,2188.01 2328.47,2189.22 2328.88,2190.44 2329.29,2191.68 2329.68,2192.95 2330.07,2194.23 2330.46,2195.52 2330.84,2196.84 2331.22,2198.18 2331.59,2199.54 2331.97,2200.91 2332.35,2202.31 2332.73,2203.73 2333.11,2205.17 2333.5,2206.63 2333.9,2208.12 2334.31,2209.62 2334.67,2210.98 2335.05,2212.4 2335.45,2213.88 2335.86,2215.42 2336.29,2217 2336.73,2218.63 2337.19,2220.29 2337.66,2221.97 2338.14,2223.68 2338.63,2225.39 2339.13,2227.12 2339.64,2228.85 2340.16,2230.57 2340.69,2232.28 2341.23,2233.97 2341.78,2235.63 2342.33,2237.26 2342.88,2238.85 2343.44,2240.39 2344.01,2241.88 2344.58,2243.32 2345.15,2244.68 2345.73,2245.98 2346.3,2247.19 2346.88,2248.32 2347.46,2249.35 2348.04,2250.29 2348.61,2251.12 2349.19,2251.84 2349.76,2252.43 1213.88,1116.55 1213.3,1115.95 1212.73,1115.24 1212.15,1114.41 1211.58,1113.47 1211,1112.44 1210.42,1111.31 1209.85,1110.09 1209.27,1108.8 1208.7,1107.43 1208.13,1106 1207.56,1104.51 1207,1102.97 1206.45,1101.38 1205.89,1099.75 1205.35,1098.08 1204.81,1096.39 1204.28,1094.69 1203.76,1092.97 1203.25,1091.24 1202.75,1089.51 1202.26,1087.79 1201.78,1086.09 1201.31,1084.4 1200.85,1082.75 1200.41,1081.12 1199.98,1079.54 1199.57,1078 1199.17,1076.52 1198.79,1075.1 1198.42,1073.74 1198.02,1072.23 1197.62,1070.75 1197.23,1069.29 1196.85,1067.85 1196.47,1066.43 1196.09,1065.03 1195.71,1063.65 1195.33,1062.3 1194.96,1060.96 1194.58,1059.64 1194.19,1058.34 1193.8,1057.06 1193.4,1055.8 1193,1054.56 1192.58,1053.33 1192.16,1052.12 1191.72,1050.93 1191.27,1049.76 1190.81,1048.6 1190.32,1047.46 1189.82,1046.33 1189.31,1045.22 1188.77,1044.12 1188.21,1043.04 1187.62,1041.97 1187.01,1040.92 1186.38,1039.88 1185.72,1038.85 1185.03,1037.84 1184.31,1036.84 1183.56,1035.85 "/>
     <polygon id="_306308640" class="fil1" points="1240.96,1136.52 2376.84,2272.4 2375.61,2272.14 2374.35,2271.84 2373.07,2271.53 2371.77,2271.18 2370.45,2270.82 2369.12,2270.43 2367.78,2270.02 2366.45,2269.58 2365.11,2269.12 2363.78,2268.65 2362.45,2268.15 2361.14,2267.64 2359.84,2267.1 2358.56,2266.55 2357.31,2265.98 2356.09,2265.4 1220.21,1129.52 1221.43,1130.1 1222.68,1130.67 1223.96,1131.22 1225.26,1131.75 1226.57,1132.27 1227.89,1132.77 1229.23,1133.24 1230.57,1133.7 1231.9,1134.13 1233.24,1134.55 1234.57,1134.94 1235.88,1135.3 1237.19,1135.64 1238.47,1135.96 1239.73,1136.25 "/>
     <polygon id="_306308880" class="fil1" points="1024.31,863.195 2160.19,1999.08 2160.19,1999.1 1024.31,863.216 "/>
     <path id="_306308808" class="fil1" d="M2361.24 2253.33l0 0zm-1135.88 -1135.88l0 0z"/>
     <polygon id="_306308496" class="fil1" points="1265.91,1132.82 2401.79,2268.71 2402.73,2269.9 2403.34,2271.13 2403.65,2272.38 2403.68,2273.62 2403.45,2274.81 2403,2275.94 2402.36,2276.98 2401.55,2277.9 2400.6,2278.67 2399.54,2279.28 2398.39,2279.68 2397.19,2279.86 2395.96,2279.78 2394.72,2279.43 2393.51,2278.77 2392.36,2277.78 2391.45,2277.11 2390.22,2276.55 2388.72,2276.06 2387.02,2275.61 2385.21,2275.16 2383.33,2274.67 2381.47,2274.1 2379.69,2273.41 1243.81,1137.53 1245.59,1138.21 1247.45,1138.78 1249.32,1139.28 1251.14,1139.73 1252.84,1140.18 1254.33,1140.66 1255.57,1141.22 1256.47,1141.9 1257.63,1142.89 1258.84,1143.55 1260.08,1143.9 1261.31,1143.97 1262.51,1143.8 1263.66,1143.39 1264.72,1142.79 1265.67,1142.02 1266.48,1141.1 1267.12,1140.06 1267.57,1138.93 1267.79,1137.73 1267.77,1136.5 1267.46,1135.25 1266.85,1134.02 "/>
     <polygon id="_306308832" class="fil1" points="1243.81,1137.53 2379.69,2273.41 2376.84,2272.4 1240.96,1136.52 "/>
     <polygon id="_306308688" class="fil1" points="1139.71,914.263 2275.59,2050.14 2274.4,2051.72 2273.12,2053.21 2271.75,2054.61 2270.3,2055.94 2268.78,2057.19 2267.2,2058.39 2265.56,2059.52 2263.87,2060.6 2262.15,2061.64 2260.4,2062.64 2258.62,2063.6 2256.84,2064.54 2255.05,2065.46 2253.26,2066.36 2251.49,2067.25 2249.74,2068.14 1113.86,932.263 1115.61,931.37 1117.38,930.476 1119.17,929.573 1120.96,928.655 1122.74,927.719 1124.52,926.754 1126.27,925.757 1127.99,924.72 1129.68,923.638 1131.32,922.504 1132.9,921.311 1134.42,920.056 1135.87,918.728 1137.24,917.325 1138.52,915.838 "/>
     <polygon id="_306308448" class="fil1" points="1153.97,956.822 2289.85,2092.7 2291.09,2094.06 2292.25,2095.42 2293.33,2096.77 2294.32,2098.13 2295.21,2099.47 2296,2100.8 2296.67,2102.12 2297.22,2103.42 2297.65,2104.69 2297.94,2105.93 2298.1,2107.14 1162.21,971.26 1162.06,970.048 1161.77,968.805 1161.34,967.534 1160.79,966.237 1160.11,964.921 1159.33,963.589 1158.44,962.244 1157.45,960.891 1156.37,959.534 1155.21,958.176 "/>
     <polygon id="_306308712" class="fil1" points="1584,996.947 2719.88,2132.83 2719.88,2187.97 1584,1052.09 "/>
     <polygon id="_306308664" class="fil1" points="1584,1052.09 2719.88,2187.97 2717.01,2188.35 2714.18,2188.76 2711.4,2189.21 2708.66,2189.7 2705.97,2190.22 2703.33,2190.78 2700.74,2191.38 2698.19,2192.01 2695.69,2192.68 2693.24,2193.39 2690.84,2194.13 2688.48,2194.91 2686.17,2195.73 2683.9,2196.59 2681.69,2197.48 2679.52,2198.41 2677.4,2199.37 2675.33,2200.37 2673.3,2201.41 2671.32,2202.48 2669.39,2203.6 2667.51,2204.74 2665.67,2205.93 2663.88,2207.15 2662.14,2208.41 2660.45,2209.7 2658.8,2211.03 2657.21,2212.4 2655.66,2213.8 2654.15,2215.25 2652.7,2216.72 2651.29,2218.24 1515.41,1082.35 1516.82,1080.84 1518.27,1079.36 1519.78,1077.92 1521.32,1076.52 1522.92,1075.15 1524.57,1073.82 1526.26,1072.52 1528,1071.27 1529.79,1070.05 1531.63,1068.86 1533.51,1067.71 1535.44,1066.6 1537.42,1065.53 1539.45,1064.49 1541.52,1063.49 1543.64,1062.52 1545.81,1061.59 1548.02,1060.7 1550.29,1059.85 1552.6,1059.03 1554.95,1058.25 1557.36,1057.51 1559.81,1056.8 1562.31,1056.13 1564.86,1055.49 1567.45,1054.9 1570.09,1054.34 1572.78,1053.81 1575.51,1053.33 1578.3,1052.88 1581.13,1052.47 "/>
     <polygon id="_306309000" class="fil1" points="1065.03,899.071 2200.91,2034.95 2202.55,2036.67 2203.79,2038.2 2204.7,2039.56 2205.37,2040.77 2205.87,2041.86 2206.27,2042.84 2206.65,2043.74 2207.09,2044.58 2207.67,2045.38 1071.78,909.498 1071.21,908.697 1070.77,907.859 1070.39,906.96 1069.99,905.978 1069.49,904.892 1068.82,903.68 1067.9,902.32 1066.67,900.791 "/>
     <polygon id="_306309072" class="fil1" points="1102.2,923.219 2238.09,2059.1 2238.28,2059.43 1102.4,923.545 "/>
     <polygon id="_306309552" class="fil1" points="1162.21,971.26 2298.1,2107.14 2298.13,2109.33 2297.94,2111.4 2297.58,2113.37 2297.05,2115.24 2296.41,2117.02 2295.66,2118.73 2294.84,2120.37 2293.99,2121.94 2293.12,2123.45 2292.27,2124.92 2291.47,2126.35 2290.74,2127.75 2290.11,2129.13 2289.62,2130.49 2289.29,2131.84 2289.15,2133.2 1153.27,997.315 1153.41,995.959 1153.74,994.606 1154.23,993.244 1154.86,991.868 1155.59,990.47 1156.39,989.039 1157.24,987.57 1158.11,986.054 1158.96,984.483 1159.78,982.847 1160.52,981.141 1161.17,979.355 1161.7,977.483 1162.06,975.515 1162.24,973.443 "/>
     <polygon id="_306309144" class="fil1" points="1515.41,1082.35 2651.29,2218.24 2649.52,2220.27 2647.81,2222.4 2646.15,2224.62 2644.54,2226.93 2642.99,2229.33 2641.5,2231.82 2640.07,2234.4 2638.69,2237.07 2637.36,2239.83 2636.09,2242.68 2634.88,2245.62 2633.72,2248.65 2632.62,2251.77 2631.58,2254.98 2630.59,2258.28 2629.66,2261.68 2628.78,2265.16 2627.96,2268.73 2627.2,2272.39 2626.49,2276.14 2625.84,2279.99 2625.25,2283.92 2624.71,2287.94 2624.23,2292.05 2623.81,2296.25 2623.44,2300.55 2623.13,2304.93 2622.87,2309.4 2622.67,2313.97 2622.53,2318.62 2622.45,2323.36 2622.42,2328.2 2622.42,2451.99 2622.38,2458.99 2622.28,2465.83 2622.11,2472.53 2621.87,2479.08 2621.56,2485.48 2621.18,2491.73 2620.73,2497.83 2620.22,2503.79 2619.63,2509.6 2618.97,2515.26 2618.25,2520.76 2617.46,2526.12 2616.6,2531.33 2615.67,2536.4 2614.67,2541.31 2613.6,2546.07 2612.46,2550.69 2611.26,2555.15 2609.98,2559.46 2608.64,2563.63 2607.23,2567.65 2605.75,2571.51 2604.2,2575.23 2602.58,2578.79 2600.89,2582.21 2599.13,2585.47 2597.31,2588.59 2595.41,2591.55 2593.45,2594.36 2591.42,2597.02 2589.32,2599.54 2587.15,2601.9 1451.27,1466.01 1453.44,1463.65 1455.54,1461.14 1457.57,1458.48 1459.53,1455.67 1461.43,1452.7 1463.25,1449.59 1465.01,1446.32 1466.7,1442.91 1468.32,1439.34 1469.87,1435.63 1471.35,1431.76 1472.76,1427.75 1474.1,1423.58 1475.38,1419.27 1476.58,1414.8 1477.72,1410.19 1478.79,1405.43 1479.79,1400.51 1480.72,1395.45 1481.58,1390.24 1482.37,1384.88 1483.09,1379.37 1483.75,1373.72 1484.33,1367.91 1484.85,1361.95 1485.3,1355.85 1485.68,1349.6 1485.99,1343.2 1486.23,1336.65 1486.4,1329.95 1486.5,1323.1 1486.54,1316.11 1486.54,1192.32 1486.57,1187.48 1486.65,1182.74 1486.79,1178.09 1486.99,1173.52 1487.25,1169.05 1487.56,1164.67 1487.93,1160.37 1488.35,1156.17 1488.83,1152.06 1489.37,1148.03 1489.96,1144.1 1490.61,1140.26 1491.32,1136.51 1492.08,1132.85 1492.9,1129.28 1493.78,1125.79 1494.71,1122.4 1495.7,1119.1 1496.74,1115.89 1497.84,1112.77 1499,1109.74 1500.21,1106.8 1501.48,1103.95 1502.8,1101.19 1504.18,1098.52 1505.62,1095.94 1507.11,1093.45 1508.66,1091.05 1510.26,1088.74 1511.93,1086.52 1513.64,1084.39 "/>
    </g>
    <path id="_289370168" class="fil1" d="M755.454 545.332l0 53.7721 -18.6732 0c-44.2618,0 -74.1733,8.47205 -89.7331,25.2425 -15.5622,16.7705 -23.3421,51.3508 -23.3421,103.912l0 122.93c0,56.7107 -7.26142,97.1682 -21.9579,121.375 -14.6965,24.378 -40.6311,41.8406 -77.804,52.7327 37.1729,10.3748 63.1075,27.6638 77.804,52.043 14.6965,24.2055 21.9579,64.6642 21.9579,121.547l0 122.238c0,52.389 7.60749,86.9682 22.8225,103.74 15.215,16.598 43.9158,25.0701 86.1036,25.0701l22.8225 -1.03701 0 53.7709 -23.8595 0c-66.3934,0 -111.52,-12.2764 -134.861,-36.6544 -23.5146,-24.3792 -35.2713,-74.5193 -35.2713,-149.903l0 -123.795c0,-52.043 -9.68268,-88.6973 -28.8744,-109.963 -14.7461,-16.3417 -37.663,-26.4544 -68.589,-30.2622l0 -55.1445c30.926,-3.80906 53.843,-13.9205 68.589,-30.2622 19.1917,-21.4394 28.8744,-58.2662 28.8744,-110.309l0 -123.103c0,-75.2115 11.7567,-125.525 35.4437,-150.422 23.687,-25.0701 68.4674,-37.5189 134.688,-37.5189l23.8595 0zm695.64 37.5189c23.687,24.8965 35.4437,75.2103 35.4437,150.422l0 123.103c0,52.043 9.68268,88.8698 28.8744,110.309 14.7461,16.3417 37.663,26.4532 68.589,30.2622l0 55.1445c-30.926,3.80788 -53.843,13.9205 -68.589,30.2622 -19.1917,21.2658 -28.8744,57.9201 -28.8744,109.963l0 123.795c0,75.3839 -11.7567,125.524 -35.2713,149.903 -23.341,24.378 -68.4674,36.6544 -134.861,36.6544l-23.8595 0 0 -53.7709 22.8225 1.03701c42.1878,0 70.8886,-8.47205 86.1036,-25.0701 15.215,-16.7717 22.8225,-51.3508 22.8225,-103.74l0 -122.238c0,-56.8831 7.26142,-97.3418 21.9579,-121.547 14.6965,-24.3792 40.6311,-41.6681 77.804,-52.043 -37.1729,-10.8921 -63.1075,-28.3547 -77.804,-52.7327 -14.6965,-24.2067 -21.9579,-64.6642 -21.9579,-121.375l0 -122.93c0,-52.5615 -7.77993,-87.1418 -23.3421,-103.912 -15.5599,-16.7705 -45.4713,-25.2425 -89.7331,-25.2425l-18.6732 0 0 -53.7721 23.8595 0c66.2209,0 111.001,12.4488 134.688,37.5189zm-257.253 338.55l0 0zm32.4012 -10.6772l0 0zm4.81181 12.1854l0 0zm-33.991 11.2984l0 0zm-26.1024 98.8737l0 0zm54.3957 84.3615l0 0zm-49.7292 40.6949l0 0zm10.6748 4.90276l0 0zm31.5343 136.877l0 0zm26.439 11.8819l0 0zm-6.14292 11.5677l0 0zm-37.1764 -17.8441l0 0zm-93.9686 -49.35l0 0zm-128.958 29.8772l0 0zm-8.79331 -1.0748l0 0zm-108.298 -120.986l0 0zm10.8898 -4.76575l0 0zm22.7823 -141.101l0 0zm29.5961 -81.8575l0 0zm10.0453 -4.10551l0 0zm25.3831 -15.4063l0 0zm103.271 -19.604l0 0zm131.694 23.2347c1.69488,-3.27638 5.21693,-5.50512 8.99646,-5.47205 6.57756,0.056693 17.3091,-2.10709 22.6429,-4.19646 6.70158,-2.64921 14.3976,-3.30473 21.2138,-1.50354 8.33977,2.19921 4.99961,14.8583 -3.33307,12.6626 -4.10315,-1.08307 -8.94095,-0.585827 -13.0665,1.03465 -6.02126,2.4874 -18.0626,4.80827 -25.754,5.04922 -0.804331,1.22835 -1.73977,2.33622 -2.80512,3.27402l-0.011811 -0.0129921c-1.50118,1.35118 -3.41221,2.42362 -5.42008,2.98819 -6.96851,1.99016 -41.8276,-14.0315 -48.0567,-16.5414l-9.30001 -3.40394c-6.04371,8.65394 -16.5768,13.2331 -25.8508,18l9.86339 4.01693c11.3528,3.34134 37.6677,22.2437 38.4945,34.9807 0.78189,11.9551 -8.74961,18.8091 -8.94804,26.0551 0.125197,5.61733 -0.134646,23.3882 -0.302362,34.6512l-0.13937 0.967324c5.07048,0.62126 15.5976,1.66063 18.1299,0.13937 3.81851,-2.37756 8.76024,-1.92047 11.8205,1.79764 8.53583,10.3665 11.276,22.6866 15.6496,38.8689 3.80433,14.0776 10.5886,40.7292 16.5851,43.6252 0.392126,0.0354331 5.62087,-2.39528 10.3536,0.068504 10.2095,5.18977 15.5811,4.91693 23.7213,8.09764 4.60512,2.03504 11.1473,1.39725 16.8236,7.29213 5.97284,6.20788 -3.45827,15.2858 -9.43347,9.0756 -1.90866,-1.98307 -8.08583,-2.34685 -12.6685,-4.37363l-2.84646 -1.0063c-6.49134,-1.3441 -14.3079,-3.84331 -20.752,-7.00158 -3.54567,1.23662 -7.43977,1.30748 -10.8898,-0.360236 -17.8477,-8.63623 -23.4036,-66.7004 -34.7315,-83.4201 -5.70827,1.85551 -14.687,1.23189 -21.9083,0.381496l-0.194882 41.5217c0.725197,15.098 -1.69252,49.5804 -3.09095,66.0567l0.207874 0.0519685 -0.242126 0.0732284 -0.0590552 0.0496063 -0.0472441 0.0590552c9.00591,2.2878 21.4772,5.39646 26.374,4.19882 4.24725,-1.42205 8.89135,0.721654 10.6866,4.90748 8.72953,20.5122 14.6067,63.2528 18.6803,89.7709 2.05276,13.3677 0.448819,35.0008 6.26339,44.5347 2.25236,0.333071 4.71615,1.15158 6.58938,2.56418 5.48504,4.13268 14.974,7.98898 21.0697,9.64253l5.36575 2.24055c4.52717,2.40473 11.0599,2.21103 16.2461,8.48268 5.47914,6.62363 -4.62048,14.9788 -10.0996,8.35631 -1.78583,-2.15906 -7.92875,-2.93032 -12.2941,-5.26182l-2.65158 -1.15512c-7.57796,-2.06103 -18.5469,-6.62599 -25.4138,-11.7532 -0.746457,-0.347244 -5.78977,-0.155906 -9.09922,-4.94528 -9.1441,-12.8008 -6.55749,-35.1933 -8.94804,-50.7567 -3.79134,-24.6803 -9.12048,-63.2363 -16.4965,-83.3859 -7.6004,0.591733 -18.1051,-1.83543 -27.9614,-4.33111l0.0188977 0.0318898 0.199606 0.16063 -2.85945 14.2772 -0.0188977 -0.00472441c-1.33228,5.89725 -5.69882,10.7622 -5.81103,11.315 -1.49055,7.69371 -4.88268,21.8599 -10.702,29.5217 -2.03622,2.67756 -4.08898,3.57048 -5.97993,4.15394 -3.57638,8.79686 -9.19843,20.6799 -15.4217,29.6776 -4.29331,6.38504 -9.55867,7.21418 -9.95434,7.53071 -0.468898,0.375591 -10.5307,18.0815 -19.8142,22.0429l-7.06772 1.62165c-0.257481,0.0318898 -0.0496063,-0.402756 -0.172441,-1.34764 -5.99174,9.77835 -13.3843,18.9732 -24.8858,18.5646 -5.40237,5.07756 -16.7067,9.17363 -24.3355,7.9252 -6.17126,-1.00866 -13.8721,-3.87874 -18.3225,-8.36812l-0.927166 0.0106299 0 -0.0259843c-5.41772,-0.480709 -12.8162,-1.1374 -23.4662,-18.0839l-0.0248032 -0.0389764c-0.197244,1.62165 0.675591,1.51181 -1.95591,1.13032l-1.94764 -0.349607 -2.89252 -0.864568 -1.98425 -0.944883c-8.40355,-4.6689 -17.9788,-21.052 -18.2528,-21.2693 -2.72126,-0.949607 -6.32717,-2.25 -9.96851,-7.52953 -9.27284,-13.4126 -11.9504,-21.3036 -21.4347,-33.8386l-16.4929 -40.8284 -2.72835 -13.6181c-10.0488,2.55591 -20.8736,5.11063 -28.6654,4.50473 -7.35591,20.1071 -12.724,58.7658 -16.4917,83.3859 -2.39764,15.6673 0.240945,37.7599 -8.94568,50.791 -2.74016,3.88701 -5.67756,4.12205 -9.13701,4.92756l-0.011811 -0.0354331c-6.92245,5.2004 -17.7449,9.70394 -25.3961,11.7721l-0.00472441 -0.0165354 -2.6126 1.18228c-4.36654,2.32087 -10.5177,3.09095 -12.3036,5.25237 -5.47678,6.62245 -15.5799,-1.7315 -10.0996,-8.35631 5.18622,-6.27284 11.7319,-6.08268 16.2496,-8.48386l5.39174 -2.22284 -0.00472441 -0.0188977c6.40158,-1.73032 15.2728,-5.4189 21.0579,-9.64607l-0.0129921 -0.0165354c1.84606,-1.39488 4.3441,-2.22047 6.60945,-2.54292 5.8063,-9.5445 4.20473,-31.1823 6.24804,-44.5335 3.9189,-25.611 10.2036,-70.5532 18.7016,-89.8477 1.86614,-4.2189 6.36024,-6.19961 10.898,-4.7693l0.262205 0.0555119 0.00236221 -0.0177165c5.58071,0.686221 15.5256,-1.67008 24.789,-4.01811l-0.510237 -1.08543c-1.31929,-18.6532 -1.61575,-50.8571 -0.864568,-66.5115 0.623623,-13.1221 0.179528,-28.8047 -0.196063,-42.0307 -6.93308,0.818505 -14.7567,1.35236 -20.687,-0.0283465l0.00472441 -0.0165354c-0.420473,-0.0956694 -0.827953,-0.209055 -1.22362,-0.337796 -11.3114,16.728 -16.8839,74.7733 -34.7374,83.4178 -3.44764,1.6689 -7.34056,1.59685 -10.8874,0.360236 -6.25749,3.06851 -14.589,5.79213 -20.8654,7.02284l-2.72835 0.987402c-4.59804,2.02914 -10.7469,2.38583 -12.6532,4.37126 -5.96575,6.20906 -15.4075,-2.85827 -9.43347,-9.07442 5.66221,-5.89843 12.1713,-5.24646 16.8047,-7.29331 8.00434,-3.11339 13.5591,-2.93504 23.7189,-8.09764 5.03268,-2.55709 9.98505,0.108662 10.3536,-0.068504 6.25158,-3.0189 13.7303,-32.8973 17.5654,-47.1697 4.16811,-15.5327 7.06182,-26.3162 14.8217,-35.5087 2.95394,-3.49843 7.91812,-3.95079 11.6669,-1.61457l0.563386 0.272835 0.00354331 -0.0165354c4.29095,0.998032 11.511,0.361418 17.2441,-0.348425l-0.198425 -0.483071 -0.034252 -13.8614 0.0448819 -20.8477c-0.178347,-7.1941 -9.71103,-14.0847 -8.94804,-26.015 0.81378,-12.7028 27.1583,-31.6465 38.4992,-34.9949 5.0067,-1.53307 7.60985,-2.62205 10.0571,-4.09489l0.42874 0.0862205c-8.95276,-4.73859 -20.2429,-9.11812 -26.7036,-18.3851l-9.30355 3.38859c-5.40355,2.17559 -40.9418,18.6047 -48.0815,16.5697 -3.45827,-0.987402 -6.27402,-3.31299 -8.22166,-6.27402 -7.87087,-0.233858 -19.4988,-2.5311 -25.7965,-5.04804 -3.95551,-1.58386 -8.87481,-2.12244 -13.0205,-1.01693 -8.31733,2.20394 -11.6787,-10.4599 -3.33307,-12.6638 7.05709,-1.86969 14.5937,-1.10669 21.3366,1.57677 5.33741,2.1248 16.0878,4.10315 22.6217,4.10197 5.86418,-0.00236221 7.47993,3.96378 10.0039,6.71221 0.396851,-0.0413386 3.96851,-1.67362 9.42166,-3.7063 9.7252,-3.62362 22.6878,-9.10867 29.7898,-12.248 4.01103,-1.77047 13.8449,-5.47678 17.8595,-5.28189 3.42992,0.166536 5.98583,1.99843 6.80788,5.21221 0.307087,1.23543 2.38347,3.4252 4.4126,5.09882 6.68268,5.51103 17.9185,9.45355 26.7083,15.1831l0.0413386 -0.103937c2.09291,0.146457 3.97914,-5.72245 7.1126,-7.15394l3.28701 -1.46457c5.92678,-2.13307 15.4583,-4.15866 17.3433,-8.68229 2.60197,-6.25276 5.95748,-9.1441 8.07875,-10.9677 1.12559,-3.75355 1.53307,-7.98898 1.29685,-11.8902 -0.23504,-3.13347 0.647245,-6.17835 2.43543,-8.49331 0.0921261,0.119291 0.240945,0.178347 0.388583,0.154725 -0.850394,-2.93032 -2.48504,-6.73701 -0.145276,-9.35079 -0.3,-0.544489 -0.519685,-1.14567 -0.637796,-1.79055 -17.5335,-95.5997 -109.579,-159.117 -205.18,-141.582 -7.65473,1.40315 -9.78898,-10.226 -2.13307,-11.6291 100.957,-18.5173 198.176,47.667 218.32,147.913 2.89961,-1.08189 6.19607,1.83425 6.92363,4.62992 0.334252,1.27913 0.643701,2.51221 0.923623,3.69331 0.287008,-0.147638 0.295276,-0.552756 0.0188977,-0.71693 5.0941,-3.78307 10.7858,-4.84607 17.0374,-4.84607l0 0.0212599c5.91142,-0.134646 12.9697,1.79055 16.6217,5.07638l0.811418 -3.22796c0.839764,-3.22559 4.37126,-5.51457 6.80315,-4.71142 20.1803,-100.2 117.376,-166.344 218.304,-147.832 7.65355,1.40315 5.52284,13.0323 -2.13307,11.6291 -95.6009,-17.5347 -187.647,45.9827 -205.18,141.582 -0.109843,0.595276 -0.304725,1.15394 -0.570473,1.66417 2.35394,2.89961 0.920079,6.04016 0.0011811,9.20788l0.0767717 -0.0330709c4.66536,5.79213 0.785434,10.611 3.8752,20.5654 12.6685,10.9169 1.82599,11.8205 19.3536,17.5583l11.6079 4.16457 4.93347 2.35394 3.39331 2.00433 0.196063 0.325985c7.67363,-4.39252 17.0055,-8.0941 22.7941,-12.8587 2.39882,-1.9748 3.99803,-3.66024 4.53426,-5.4378 1.37835,-4.56851 6.11811,-5.62323 10.3866,-4.44803 4.96536,1.36654 9.09804,2.62914 14.1709,4.86969 7.11497,3.13347 20.1177,8.63386 29.8429,12.2539 5.6693,2.11063 9.01536,4.07008 9.70158,3.46536 0.296457,-0.261024 0.5563,-0.604725 0.770079,-1.00512z"/>
   </g>
  </g>
  <path class="fil2" d="M1024 -0.0011811c565.539,0 1024,458.462 1024,1024 0,565.539 -458.462,1024 -1024,1024 -565.539,0 -1024,-458.462 -1024,-1024 0,-565.539 458.462,-1024 1024,-1024z"/>
  <path class="fil3" d="M755.454 599.104l-18.6732 0c-44.2618,0 -74.1733,8.47205 -89.7331,25.2425 -15.5622,16.7705 -23.3421,51.3508 -23.3421,103.912l0 122.93c0,56.7107 -7.26142,97.1682 -21.9579,121.375 -14.6965,24.378 -40.6311,41.8406 -77.804,52.7327 37.1729,10.3748 63.1075,27.6638 77.804,52.043 14.6965,24.2055 21.9579,64.6642 21.9579,121.547l0 122.238c0,52.389 7.60749,86.9682 22.8225,103.74 15.215,16.598 43.9158,25.0701 86.1036,25.0701 2.42008,0 6.05079,-0.173622 11.2382,-0.518504 5.01378,-0.347244 8.81812,-0.518504 11.5843,-0.518504l0 53.7709 -23.8595 0c-66.3934,0 -111.52,-12.2764 -134.861,-36.6544 -23.5146,-24.3792 -35.2713,-74.5193 -35.2713,-149.903l0 -123.795c0,-52.043 -9.68268,-88.6973 -28.8744,-109.963 -14.7461,-16.3417 -37.663,-26.4544 -68.589,-30.2622l0 -55.1445c30.926,-3.80906 53.843,-13.9205 68.589,-30.2622 19.1917,-21.4394 28.8744,-58.2662 28.8744,-110.309l0 -123.103c0,-75.2115 11.7567,-125.525 35.4437,-150.422 23.687,-25.0701 68.4674,-37.5189 134.688,-37.5189l23.8595 0 0 53.7721z"/>
  <path class="fil3" d="M1292.55 599.104l18.6732 0c44.2618,0 74.1733,8.47205 89.7331,25.2425 15.5622,16.7705 23.3421,51.3508 23.3421,103.912l0 122.93c0,56.7107 7.26142,97.1682 21.9579,121.375 14.6965,24.378 40.6311,41.8406 77.804,52.7327 -37.1729,10.3748 -63.1075,27.6638 -77.804,52.043 -14.6965,24.2055 -21.9579,64.6642 -21.9579,121.547l0 122.238c0,52.389 -7.60749,86.9682 -22.8225,103.74 -15.215,16.598 -43.9158,25.0701 -86.1036,25.0701 -2.42008,0 -6.05079,-0.173622 -11.2382,-0.518504 -5.01378,-0.347244 -8.81812,-0.518504 -11.5843,-0.518504l0 53.7709 23.8595 0c66.3934,0 111.52,-12.2764 134.861,-36.6544 23.5146,-24.3792 35.2713,-74.5193 35.2713,-149.903l0 -123.795c0,-52.043 9.68268,-88.6973 28.8744,-109.963 14.7461,-16.3417 37.663,-26.4544 68.589,-30.2622l0 -55.1445c-30.926,-3.80906 -53.843,-13.9205 -68.589,-30.2622 -19.1917,-21.4394 -28.8744,-58.2662 -28.8744,-110.309l0 -123.103c0,-75.2115 -11.7567,-125.525 -35.4437,-150.422 -23.687,-25.0701 -68.4674,-37.5189 -134.688,-37.5189l-23.8595 0 0 53.7721z"/>
  <path class="fil4" d="M995.277 870.481c-3.21024,0.589371 -6.29174,-1.5378 -6.88111,-4.74804 -17.5335,-95.5997 -109.58,-159.116 -205.18,-141.582 -3.21024,0.589371 -6.29292,-1.5378 -6.88111,-4.74804 -0.589371,-3.21024 1.5378,-6.29292 4.74804,-6.88111 102.017,-18.7122 200.232,49.0618 218.943,151.078 0.588189,3.21024 -1.53898,6.29174 -4.74922,6.88111z"/>
  <path class="fil4" d="M1052.65 870.481c3.21024,0.589371 6.29292,-1.5378 6.88229,-4.74804 17.5335,-95.5997 109.579,-159.116 205.18,-141.582 3.21024,0.589371 6.29292,-1.5378 6.88111,-4.74804 0.589371,-3.21024 -1.5378,-6.29292 -4.74804,-6.88111 -102.018,-18.7122 -200.232,49.0618 -218.943,151.078 -0.589371,3.21024 1.5378,6.29174 4.74804,6.88111z"/>
  <path class="fil5" d="M1058.66 877.662l1.31339 -4.52481c0.529134,-1.72205 0.312992,-3.49607 -0.466536,-4.97363 -1.78583,-3.05551 -9.35434,-7.66418 -11.7024,-7.99607 -2.80276,0.115748 -5.32205,2.03977 -6.06142,4.89567 -0.409843,1.56851 -0.780709,3.06496 -1.10906,4.48347l0.0295276 0.011811 17.9445 8.0752c0.0188977,0.00826772 0.0366142,0.0177165 0.0519685,0.0283465z"/>
  <path class="fil6" d="M935.943 932.929c-7.96654,-4.35118 -14.5028,-6.54804 -21.7618,-12.5362 -2.49567,-2.05866 -4.61457,-4.25906 -6.19134,-6.52087l-9.30355 3.38859c-7.03701,3.11103 -20.1449,8.64568 -30.5055,12.5055 -5.63386,2.09882 -10.6913,3.65906 -14.1555,4.11024 -1.0878,0.279921 -2.26181,0.283465 -3.42048,-0.046063 -3.45827,-0.987402 -6.27402,-3.31299 -8.22166,-6.2752 -7.87205,-0.232677 -19.4988,-2.52874 -25.7977,-5.04685 -3.95433,-1.58386 -8.87363,-2.12244 -13.0193,-1.01693 -3.49607,0.920079 -7.07717,-1.16929 -7.99725,-4.66536 -0.920079,-3.49725 1.16811,-7.07835 4.66536,-7.99843 7.05591,-1.86969 14.5925,-1.10669 21.3343,1.57677 5.33859,2.1248 16.089,4.10315 22.6229,4.10079 3.79488,-0.0011811 7.12087,2.22874 8.90079,5.51221l1.10315 1.20118c0.396851,-0.0413386 3.96851,-1.67362 9.42284,-3.7063 9.72402,-3.62362 22.6866,-9.10867 29.7886,-12.248 4.01103,-1.77047 13.8449,-5.47678 17.8595,-5.28189 3.43111,0.166536 5.98583,1.99725 6.80788,5.21221 0.305906,1.23543 2.38347,3.4252 4.4126,5.09882 5.62796,4.64174 12.1831,7.04882 18.7406,10.598 2.65158,1.43504 6.12993,3.29173 8.99528,5.27363l-14.0539 6.49134c-0.116929,0.0543308 -0.197244,0.155906 -0.225591,0.272835z"/>
  <path class="fil6" d="M898.065 1045.27c-7.53898,0.983859 -16.7091,1.88268 -23.439,0.315355l0.00472441 -0.0165354c-0.420473,-0.0956694 -0.827953,-0.209055 -1.22362,-0.338977 -5.46496,8.08347 -8.63977,22.0571 -11.9504,34.3406 -4.4504,16.5272 -11.778,43.7457 -22.787,49.0784 -3.44764,1.6689 -7.34056,1.59685 -10.8874,0.360236 -6.25749,3.06851 -14.589,5.79213 -20.8666,7.02284l-2.72835 0.987402c-4.59685,2.02914 -10.7457,2.38583 -12.6508,4.37126 -2.5063,2.60433 -6.64961,2.68465 -9.25513,0.179528 -2.60433,-2.50512 -2.68465,-6.64961 -0.179528,-9.25394 5.66221,-5.89961 12.1713,-5.24646 16.8059,-7.29331l5.49685 -1.85788c5.47678,-1.0748 12.8032,-3.48662 18.2209,-6.23977 5.03268,-2.55827 9.98505,0.108662 10.3524,-0.068504 6.25158,-3.0189 13.7327,-32.8973 17.5665,-47.1697 4.16811,-15.5327 7.06182,-26.315 14.8205,-35.5075 2.95512,-3.49843 7.92048,-3.95197 11.6681,-1.61575l0.563386 0.272835 0.00354331 -0.0165354c4.95945,1.15394 13.8295,0.125197 19.7977,-0.679134 -0.034252,0.0637796 -0.0519685,0.137008 -0.0484252,0.21378l0.608268 12.6579c0.00472441,0.0992127 0.046063,0.188977 0.10748,0.257481z"/>
  <path class="fil6" d="M903.822 1167.01c-10.9571,2.80512 -23.4319,6.06497 -32.1272,5.38937 -7.35591,20.1071 -12.724,58.7658 -16.4917,83.3859 -2.39764,15.6673 0.240945,37.7587 -8.94568,50.7922 -1.97244,2.79685 -5.02441,4.40552 -8.3504,4.74213l-0.786615 0.184252 -0.011811 -0.0354331c-6.92245,5.2004 -17.7449,9.70394 -25.3973,11.7721l-0.00354331 -0.0165354 -2.6126 1.18228c-4.36654,2.32087 -10.5177,3.09095 -12.3036,5.25119 -2.30788,2.78977 -6.43938,3.17953 -9.22914,0.871654 -2.78858,-2.30669 -3.17835,-6.43819 -0.870473,-9.22796 5.18622,-6.27166 11.7319,-6.0815 16.2508,-8.48268l5.39056 -2.22284 -0.00472441 -0.0177165c6.4004,-1.73032 15.2728,-5.42126 21.0579,-9.64725l-0.0129921 -0.0165354c1.84606,-1.39488 4.3441,-2.22047 6.60945,-2.5441 5.8063,-9.54331 4.20591,-31.1811 6.24804,-44.5323 3.9189,-25.6122 10.2036,-70.5532 18.7075,-89.8453l-0.00590552 -0.00354331c1.82835,-4.1315 6.48189,-6.24095 10.6843,-4.82953l0.212599 0.0673229 0.0011811 -0.00590552 0.262205 0.0555119 0.00236221 -0.0177165c6.26103,0.770079 18.0142,-2.29016 28.1386,-4.87087 -0.0354331,0.0838583 -0.0437008,0.179528 -0.0165354,0.274016l3.58937 12.3047 0.0153543 0.0437008z"/>
  <path class="fil6" d="M1144.65 1152.77c10.298,2.56418 24.2138,6.48071 30.6969,5.43898l0.282284 -0.068504 -0.00236221 -0.00708662c4.24725,-1.42205 8.89135,0.719292 10.6772,4.90985l0.00944883 -0.00354331c8.72953,20.5134 14.6055,63.2528 18.6791,89.7709 2.05394,13.3677 0.45,35.0008 6.26575,44.5347 2.25118,0.333071 4.71496,1.15158 6.57993,2.57481l0.00826772 -0.0106299c5.48386,4.13268 14.974,7.9878 21.0697,9.64135l5.36103 2.25118 0.00472441 -0.00944883c4.52599,2.40473 11.0599,2.21103 16.2461,8.48268 2.30788,2.78858 1.91693,6.92008 -0.871654,9.22796 -2.78858,2.30788 -6.92008,1.91693 -9.22796,-0.871654 -1.78583,-2.16024 -7.92875,-2.93032 -12.2988,-5.25237l0.00472441 -0.00944883 -2.65276 -1.15512c-7.5756,-2.06103 -18.5457,-6.62599 -25.4138,-11.7532l-0.732284 -0.170079c-3.35315,-0.336614 -6.4193,-1.94764 -8.37875,-4.76693l0.0129921 -0.00826772c-9.1441,-12.8008 -6.55749,-35.1933 -8.94804,-50.7567 -3.79134,-24.6803 -9.12048,-63.2363 -16.4953,-83.3859 -8.73898,0.679134 -21.3142,-2.62795 -32.3303,-5.44489l0.00944883 -0.0496063 1.66654 -12.6898c0.022441,-0.177165 -0.0708662,-0.34252 -0.222047,-0.419292z"/>
  <path class="fil6" d="M1150.28 1032.61c5.58662,0.752363 16.1764,1.98071 20.3504,0.669686l0.325985 -0.194882 -0.00590552 -0.00944883c3.81851,-2.37638 8.76142,-1.91811 11.8217,1.79882 8.53465,10.3665 11.2748,22.6866 15.6484,38.8689 3.80433,14.0776 10.5886,40.7292 16.5851,43.6252l1.44095 -0.398032c2.78268,-0.921261 6.2752,-0.902363 8.9067,0.477166l0.00590552 -0.0106299c5.72953,2.9126 12.5563,5.05867 18.3543,6.26575l5.36693 1.83189c4.60512,2.03504 11.1473,1.39725 16.8236,7.29331 2.50512,2.60433 2.42481,6.74882 -0.179528,9.25394 -2.60551,2.50512 -6.74882,2.42481 -9.25394,-0.179528 -1.90866,-1.98307 -8.08701,-2.34685 -12.6685,-4.37363l-2.84646 -1.0063c-6.49134,-1.3441 -14.3079,-3.84331 -20.752,-7.00158 -3.54567,1.2378 -7.43977,1.30748 -10.8898,-0.360236 -11.0315,-5.34331 -18.3662,-32.6729 -22.7977,-49.187 -3.17244,-11.8028 -6.47008,-26.1685 -11.935,-34.2331 -6.40394,2.08229 -16.924,1.04291 -24.463,0.0649607 0.00472441,-0.0236221 0.00708662,-0.0472441 0.00708662,-0.0720473l0.19252 -12.9461c0.0011811,-0.0637796 -0.0129921,-0.124016 -0.0377953,-0.177165z"/>
  <path class="fil6" d="M1100.81 924.464c4.4126,-2.57126 8.94331,-5.03622 13.4268,-7.11024 4.14567,-1.90984 8.00906,-4.24016 10.9583,-6.66733 2.39882,-1.97362 3.99803,-3.66024 4.53426,-5.4378 1.37835,-4.56851 6.11811,-5.62323 10.3866,-4.44922 4.96536,1.36772 9.09922,2.6315 14.1709,4.87087 7.11497,3.13347 20.1177,8.63386 29.8429,12.2539 5.43071,2.02205 8.96339,3.64843 9.34725,3.67796 0.132284,-0.0377953 0.255118,-0.10748 0.364961,-0.200788l-0.011811 -0.011811c0.297638,-0.262205 0.557481,-0.604725 0.778347,-1.00158l-0.00708662 -0.00354331c1.69488,-3.27638 5.21693,-5.50512 8.99646,-5.47205 6.57756,0.056693 17.3079,-2.10709 22.6453,-4.18701l-0.00354331 -0.00944883c6.70276,-2.64921 14.3988,-3.30355 21.215,-1.50354 3.49607,0.920079 5.58544,4.50118 4.66536,7.99843 -0.920079,3.49607 -4.50118,5.58426 -7.99843,4.66418 -4.10197,-1.08307 -8.94095,-0.585827 -13.0618,1.04291l-0.00354331 -0.00826772c-6.02245,2.48622 -18.0638,4.80709 -25.7551,5.04922 -0.805512,1.22835 -1.73858,2.33622 -2.8063,3.27402l-0.0106299 -0.0129921c-1.50118,1.35118 -3.41221,2.42362 -5.41772,2.9941l-0.00236221 -0.00590552c-2.80512,0.800788 -9.57048,-1.07953 -17.498,-4.02992 -10.3677,-3.86103 -23.5087,-9.40513 -30.5599,-12.5114l-9.29883 -3.40394c-4.42205,6.33189 -12.6638,11.5984 -19.9843,14.9858l-7.99253 4.1067c-0.0188977,-0.0885827 -0.0673229,-0.17126 -0.144095,-0.231496l-10.7658 -8.65276 -0.0106299 -0.00708662z"/>
  <path class="fil5" d="M989.408 877.662l-1.31339 -4.52481c-0.529134,-1.72205 -0.311811,-3.49607 0.466536,-4.97363 0.682678,-1.47402 8.22048,-7.18819 11.7024,-7.99607 2.80394,0.115748 5.32205,2.03977 6.0626,4.89567 0.409843,1.56851 0.780709,3.06496 1.10787,4.48347l-0.0295276 0.011811 -17.9445 8.0752c-0.0177165,0.00826772 -0.0354331,0.0177165 -0.0519685,0.0283465z"/>
  <path class="fil4" d="M1059.04 876.572c1.91339,2.3752 2.72008,5.3693 2.5252,8.64095 -0.23504,4.0937 0.253937,8.42127 1.34055,11.9362l0.00944883 -0.011811c2.11063,1.8189 5.45315,4.69961 8.04804,10.9335 1.40433,3.38268 5.57835,4.7504 11.3055,6.62481 6.01418,1.96772 13.4457,4.30158 19.9347,8.52402 -0.0106299,0.129921 0.0425197,0.263386 0.152362,0.35315l10.7669 8.65158c0.174803,0.140551 0.429922,0.114567 0.572835,-0.0590552 2.24055,1.35827 5.24646,2.70236 10.0228,4.11378 11.3528,3.34134 37.6677,22.2437 38.4945,34.9807 0.454725,6.87875 -2.27835,11.6032 -5.11418,16.5047 -1.7563,3.03662 -3.57402,6.17717 -3.83386,9.54922 0.125197,5.61851 -0.134646,23.3894 -0.302362,34.6524 -0.0779528,0.0732284 -0.127559,0.177165 -0.129921,0.292914l-0.191339 12.9461c-0.0011811,0.0767717 0.0188977,0.148819 0.0543308,0.210236 -0.433465,15.4784 -0.784253,30.4335 -0.21378,42.2244 0.725197,15.098 -1.69252,49.5804 -3.08977,66.0579l0.206693 0.0507874c-0.206693,-0.00472441 -0.387402,0.147638 -0.414567,0.356693l-1.66654 12.6898c-0.0248032,0.19252 0.0874016,0.372048 0.262205,0.437008l-2.85945 14.2772 -0.0188977 -0.00472441c-1.33228,5.89725 -5.69882,10.7622 -5.81103,11.315 -1.49055,7.69371 -4.88268,21.8599 -10.702,29.5217 -2.03622,2.67756 -4.08898,3.57048 -5.97993,4.15394 -3.57638,8.79686 -9.19725,20.6811 -15.4169,29.6811l-0.00590552 -0.00354331c-4.29213,6.38504 -9.55867,7.21418 -9.95316,7.53071 -0.236221,0.187795 -9.82796,16.5036 -18.2067,21.2516 -3.00473,1.70788 -6.09567,2.0941 -8.6752,2.41299 -0.258662,0.0318898 -0.0496063,-0.402756 -0.164173,-1.3441l-0.00708662 -0.00354331c-5.99292,9.77835 -13.3854,18.9732 -24.887,18.5646 -5.40237,5.07756 -16.7067,9.17363 -24.3366,7.9252 -6.17008,-1.00866 -13.8709,-3.87874 -18.3201,-8.36812l-0.928347 0.0106299 0 -0.0248032c-5.41772,-0.48189 -12.8162,-1.13976 -23.478,-18.078l0.011811 -0.00708662 -0.0236221 -0.0389764c-0.11811,0.961418 0.103937,1.39843 -0.166536,1.36536 -2.61496,-0.322441 -5.56063,-0.686221 -8.61969,-2.38583l0.00472441 -0.00944883c-8.40355,-4.66772 -17.9788,-21.0508 -18.2516,-21.2681 -2.72244,-0.949607 -6.32717,-2.25 -9.96969,-7.52953 -9.27402,-13.4126 -11.9504,-21.3036 -21.4347,-33.8374l-5.1378 -12.0508c-4.62166,-11.5642 -11.3421,-28.7197 -11.3551,-28.7788l-2.89488 -14.4484c0.0578741,-0.0944883 0.0767717,-0.212599 0.0437008,-0.327166l-3.58937 -12.3047c-0.0401575,-0.138189 -0.146457,-0.237402 -0.272835,-0.277559 -1.32047,-18.6543 -1.61693,-50.8571 -0.865749,-66.5115 0.571654,-11.8276 0.21378,-26.8252 -0.204331,-42.3426 0.090945,-0.0791339 0.146457,-0.198425 0.140551,-0.328347l-0.608268 -12.6579c-0.00708662,-0.138189 -0.0826772,-0.258662 -0.191339,-0.327166l-0.0413386 -13.8602 0.00708662 -0.0011811 -0.0814961 -10.9618c0.00708662,-3.44055 0.0472441,-6.75119 0.125197,-9.88583 -0.177165,-7.1941 -9.71103,-14.0835 -8.94686,-26.015 0.81378,-12.7028 27.1583,-31.6465 38.4981,-35.002l0.0011811 0.00708662c5.0067,-1.53307 7.60985,-2.62205 10.0453,-4.10551 0.11811,0.120473 0.303544,0.16063 0.465355,0.0862205l14.2913 -6.60119c0.11811,-0.0543308 0.197244,-0.157087 0.226772,-0.272835 2.09291,0.146457 3.97914,-5.72245 7.1126,-7.15394l3.28583 -1.47165 0.0011811 0.00590552c2.08347,-0.764174 4.12914,-1.43504 6.04489,-2.06221 5.71418,-1.87323 9.88938,-3.24095 11.2984,-6.6189 2.60079,-6.25276 5.95748,-9.14292 8.07757,-10.9677 1.12677,-3.75355 1.53425,-7.98898 1.29803,-11.8902 -0.236221,-3.13347 0.647245,-6.17835 2.43662,-8.49331 0.113386,0.146457 0.316536,0.20315 0.49252,0.124016l17.9445 -8.0752c0.305906,-0.138189 0.322441,-0.559843 0.0401575,-0.726379 5.09528,-3.78425 10.7858,-4.84725 17.0374,-4.84725l0 0.0212599c6.29882,-0.142913 12.2327,1.68307 16.539,4.963 0.0732284,0.164173 0.270473,0.249213 0.468898,0.249213 0.0330709,0.0330709 0.0708662,0.0602363 0.115748,0.0814961l17.2394 8.0752c0.124016,0.0578741 0.261024,0.0484252 0.372048,-0.0129921z"/>
  <path class="fil7" d="M1087.19 916.326c2.23937,0.768898 4.57323,1.62402 6.90709,2.62795 2.48032,2.08583 5.94449,1.99606 7.90158,4.1752 0.0283465,0.115748 0.125197,0.19252 0.225591,0.272835l8.97402 7.2756 1.9252 1.54725c0.174803,0.140551 0.429922,0.114567 0.572835,-0.0590552 2.24055,1.35827 5.24646,2.70236 10.0228,4.11378 11.3528,3.34134 37.6677,22.2437 38.4945,34.9807 0.454725,6.87875 -2.27835,11.6032 -5.11418,16.5047 -1.7563,3.03662 -3.57402,6.17717 -3.83386,9.54922 0.125197,5.61851 -0.134646,23.3894 -0.302362,34.6524 -0.0779528,0.0732284 -0.127559,0.177165 -0.129921,0.292914l-0.191339 12.9461c-0.0011811,0.0767717 0.0188977,0.148819 0.0543308,0.210236 -0.433465,15.4784 -0.784253,30.4335 -0.21378,42.2244 0.725197,15.098 -1.69252,49.5804 -3.08977,66.0579l0.206693 0.0507874c-0.206693,-0.00472441 -0.387402,0.147638 -0.414567,0.356693l-1.66654 12.6898c-0.0248032,0.19252 0.0874016,0.372048 0.262205,0.437008l-2.85945 14.2772 -0.0188977 -0.00472441c-1.33228,5.89725 -5.69882,10.7622 -5.81103,11.315 -1.49055,7.69371 -4.88268,21.8599 -10.702,29.5217 -2.03622,2.67756 -4.08898,3.57048 -5.97993,4.15394 -3.57638,8.79686 -9.19725,20.6811 -15.4169,29.6811l-0.00590552 -0.00354331c-4.29213,6.38504 -9.55867,7.21418 -9.95316,7.53071 -0.236221,0.187795 -9.82796,16.5036 -18.2067,21.2516 -1.89921,1.07953 -3.83268,1.62992 -5.64922,1.97008 -29.1414,-83.1497 -47.2394,-195.253 -47.2394,-308.104 0,-25.4681 24.0378,-48.0567 61.252,-62.4957z"/>
  <path class="fil7" d="M976.061 1287.13c-2.13898,-0.315355 -4.44922,-0.829134 -6.82914,-2.15079l0.00472441 -0.00944883c-8.40355,-4.66772 -17.9788,-21.0508 -18.2516,-21.2681 -2.72244,-0.949607 -6.32717,-2.25 -9.96969,-7.52953 -9.27402,-13.4126 -11.9504,-21.3036 -21.4347,-33.8374l-5.1378 -12.0508c-4.62166,-11.5642 -11.3421,-28.7197 -11.3551,-28.7788l-2.89488 -14.4484c0.0578741,-0.0944883 0.0767717,-0.212599 0.0437008,-0.327166l-3.58937 -12.3047c-0.0401575,-0.138189 -0.146457,-0.237402 -0.272835,-0.277559 -1.32047,-18.6543 -1.61693,-50.8571 -0.865749,-66.5115 0.571654,-11.8276 0.21378,-26.8252 -0.204331,-42.3426 0.090945,-0.0791339 0.146457,-0.198425 0.140551,-0.328347l-0.608268 -12.6579c-0.00708662,-0.138189 -0.0826772,-0.258662 -0.191339,-0.327166l-0.0413386 -13.8602 0.00708662 -0.0011811 -0.0814961 -10.9618c0.00708662,-3.44055 0.0472441,-6.75119 0.125197,-9.88583 -0.177165,-7.1941 -9.71103,-14.0835 -8.94686,-26.015 0.81378,-12.7028 27.1583,-31.6465 38.4981,-35.002l0.0011811 0.00708662c5.0067,-1.53307 7.60985,-2.62205 10.0453,-4.10551 0.11811,0.120473 0.303544,0.16063 0.465355,0.0862205l14.2913 -6.60119c0.11811,-0.0543308 0.197244,-0.157087 0.226772,-0.272835 2.09291,0.146457 3.97914,-5.72245 7.1126,-7.15394l3.28583 -1.47165 0.0011811 0.00590552c0.628347,-0.229134 1.25197,-0.451181 1.86969,-0.666142 37.5662,14.4284 61.8686,37.1268 61.8686,62.7355 0,112.945 -18.1276,225.141 -47.3126,308.313z"/>
  <line class="fil4" x1="986.355" y1="885.213" x2="986.355" y2= "885.213" />
  <line class="fil4" x1="809.075" y1="906.747" x2="809.075" y2= "906.747" />
  <line class="fil4" x1="808.101" y1="919.817" x2="808.101" y2= "919.817" />
  <line class="fil4" x1="801.073" y1="1123.17" x2="801.073" y2= "1123.17" />
  <line class="fil4" x1="803.584" y1="1136.03" x2="803.584" y2= "1136.03" />
  <line class="fil4" x1="1214.46" y1="1311.31" x2="1214.46" y2= "1311.31" />
  <line class="fil4" x1="1215.2" y1="1311.48" x2="1215.2" y2= "1311.48" />
  <line class="fil4" x1="1247.14" y1="1137.01" x2="1247.14" y2= "1137.01" />
  <line class="fil4" x1="1252.42" y1="1125.02" x2="1252.42" y2= "1125.02" />
  <line class="fil4" x1="1247.05" y1="1123.19" x2="1247.05" y2= "1123.19" />
  <line class="fil4" x1="1195.53" y1="920.065" x2="1195.53" y2= "920.065" />
  <line class="fil4" x1="1061.57" y1="885.213" x2="1061.57" y2= "885.213" />
  <path class="fil8" d="M1063.23 898.109c0.388583,1.01102 -0.314173,-0.878741 -0.316536,-0.967324l-0.00708662 0.00826772c0.0992127,0.318898 0.197244,0.616536 0.296457,0.890552l0.0271654 0.068504z"/>
  <path class="fil9" d="M1052.25 993.109c-2.56181,-2.56181 -6.71812,-2.56181 -9.27993,0 -2.56181,2.56299 -2.56181,6.71812 0,9.27993l61.78 52.5 -52.5 -61.78z"/>
  <path class="fil9" d="M992.733 1073.14c1.85433,-3.1004 5.87126,-4.11024 8.97166,-2.25591 3.1004,1.85433 4.11142,5.87126 2.25591,8.97166l-48.3473 67.8815 37.1197 -74.5973z"/>
  <path class="fil9" d="M1053.23 1073.14c-1.85433,-3.1004 -5.87245,-4.11024 -8.97284,-2.25591 -3.1004,1.85433 -4.11024,5.87126 -2.25591,8.97166l48.3473 67.8815 -37.1185 -74.5973z"/>
  <path class="fil9" d="M983.35 1165.94c1.3441,-3.35551 5.15552,-4.98544 8.51103,-3.64016 3.35433,1.3441 4.98426,5.15552 3.63898,8.50985l-34.7599 69.2658 22.6099 -74.1355z"/>
  <path class="fil9" d="M1064.66 1165.94c-1.34528,-3.35551 -5.15552,-4.98544 -8.51103,-3.64016 -3.35433,1.3441 -4.98426,5.15552 -3.64016,8.50985l34.7611 69.2658 -22.6099 -74.1355z"/>
  <path class="fil9" d="M993.707 993.109c2.56181,-2.56181 6.71693,-2.56181 9.27993,0 2.56181,2.56299 2.56181,6.71812 0,9.27993l-61.7811 52.5 52.5012 -61.78z"/>
  <line class="fil10" x1="919.576" y1="1222.34" x2="919.576" y2= "1222.34" />
 </g>
</svg>
