<?xml version="1.0" encoding="iso-8859-1"?>
<!-- Generator: Adobe Illustrator 19.0.0, SVG Export Plug-In . SVG Version: 6.00 Build 0)  -->
<svg xmlns="http://www.w3.org/2000/svg" xmlns:xlink="http://www.w3.org/1999/xlink" version="1.1" id="Layer_1" x="0px" y="0px" viewBox="0 0 512 512" style="enable-background:new 0 0 512 512;" xml:space="preserve">
<path style="fill:#707487;" d="M409.921,367.164H33.67c-14.168,0-25.653-11.485-25.653-25.653V102.079  c0-14.168,11.485-25.653,25.653-25.653h376.251c14.168,0,25.653,11.485,25.653,25.653v239.432  C435.574,355.679,424.089,367.164,409.921,367.164z"/>
<polygon style="fill:#5B5D6E;" points="264.551,435.574 179.04,435.574 196.142,358.613 247.449,358.613 "/>
<rect x="42.221" y="110.63" style="fill:#8CE16E;" width="359.148" height="222.33"/>
<path style="fill:#9BF57D;" d="M127.733,273.102c0,20.787,3.023,40.857,8.556,59.858h265.08V110.63H202.654  C156.821,149.839,127.733,208.056,127.733,273.102z"/>
<path style="fill:#B9FF82;" d="M401.37,169.532c-17.623-10.208-38.027-16.147-59.858-16.147  c-66.116,0-119.716,53.599-119.716,119.716c0,21.831,5.939,42.235,16.146,59.858H401.37V169.532z"/>
<circle style="fill:#FFFFFF;" cx="341.511" cy="273.102" r="76.96"/>
<path style="fill:#707487;" d="M486.881,435.574c-4.376,0-8.755-1.671-12.092-5.011l-51.307-51.307  c-6.681-6.681-6.681-17.503,0-24.184c6.672-6.681,17.512-6.681,24.184,0l51.307,51.307c6.681,6.681,6.681,17.503,0,24.184  C495.636,433.904,491.257,435.574,486.881,435.574z"/>
<path style="fill:#8CE16E;" d="M341.511,315.858L341.511,315.858c-14.168,0-25.653-11.485-25.653-25.653v-17.102  c0-14.168,11.485-25.653,25.653-25.653l0,0c14.168,0,25.653,11.485,25.653,25.653v17.102  C367.165,304.372,355.68,315.858,341.511,315.858z"/>
<path style="fill:#9BF57D;" d="M341.511,247.448c-14.168,0-25.653,11.485-25.653,25.653h51.307  C367.165,258.934,355.68,247.448,341.511,247.448z"/>
<path d="M290.205,359.148H33.67c-9.725,0-17.637-7.912-17.637-17.637V102.079c0-9.725,7.912-17.637,17.637-17.637h376.251  c9.725,0,17.637,7.912,17.637,17.637v111.165c0,4.427,3.589,8.017,8.017,8.017c4.427,0,8.017-3.589,8.017-8.017V102.079  c0-18.566-15.105-33.67-33.67-33.67H33.67C15.105,68.409,0,83.513,0,102.079v239.432c0,18.566,15.105,33.67,33.67,33.67h256.534  c4.427,0,8.017-3.589,8.017-8.017S294.632,359.148,290.205,359.148z"/>
<path d="M332.96,102.613c-4.427,0-8.017,3.589-8.017,8.017s3.589,8.017,8.017,8.017h17.102c4.427,0,8.017-3.589,8.017-8.017  s-3.589-8.017-8.017-8.017H332.96z"/>
<path d="M306.772,110.63c0-4.427-3.589-8.017-8.017-8.017H42.221c-4.427,0-8.017,3.589-8.017,8.017v171.023  c0,4.427,3.589,8.017,8.017,8.017s8.017-3.589,8.017-8.017V118.647h248.518C303.183,118.647,306.772,115.057,306.772,110.63z"/>
<path d="M42.221,307.841c-4.427,0-8.017,3.589-8.017,8.017v17.102c0,4.427,3.589,8.017,8.017,8.017h205.228  c4.427,0,8.017-3.589,8.017-8.017c0-4.427-3.589-8.017-8.017-8.017H50.238v-9.086C50.238,311.43,46.649,307.841,42.221,307.841z"/>
<path d="M401.37,187.056c4.427,0,8.017-3.589,8.017-8.017V110.63c0-4.427-3.589-8.017-8.017-8.017h-17.102  c-4.427,0-8.017,3.589-8.017,8.017s3.589,8.017,8.017,8.017h9.086v60.392C393.353,183.466,396.942,187.056,401.37,187.056z"/>
<path d="M290.205,427.557h-19.394l-7.033-28.132c-1.074-4.296-5.43-6.909-9.722-5.833c-4.296,1.073-6.907,5.427-5.833,9.722  l6.061,24.244h-64.977l6.061-24.244c1.074-4.295-1.537-8.647-5.833-9.722c-4.289-1.072-8.647,1.537-9.722,5.833l-7.032,28.132  h-19.394c-4.427,0-8.017,3.589-8.017,8.017c0,4.427,3.589,8.017,8.017,8.017h136.818c4.427,0,8.017-3.589,8.017-8.017  C298.221,431.146,294.632,427.557,290.205,427.557z"/>
<path d="M504.642,400.711l-51.304-51.304c-4.742-4.747-11.05-7.361-17.764-7.361c-3.942,0-7.742,0.909-11.169,2.612l-17.434-17.434  c12.184-14.709,19.517-33.575,19.517-54.122c0-46.856-38.121-84.977-84.977-84.977s-84.977,38.121-84.977,84.977  s38.121,84.977,84.977,84.977c20.547,0,39.413-7.333,54.123-19.517l17.435,17.435c-1.706,3.429-2.615,7.228-2.615,11.168  c0,6.707,2.613,13.015,7.358,17.761l51.304,51.304c4.742,4.748,11.05,7.363,17.764,7.363s13.022-2.615,17.761-7.358  c4.745-4.745,7.358-11.052,7.358-17.761C512,411.764,509.387,405.456,504.642,400.711z M272.568,273.102  c0-38.015,30.928-68.944,68.944-68.944s68.944,30.928,68.944,68.944s-30.928,68.944-68.944,68.944S272.568,311.117,272.568,273.102z   M493.301,424.899c-1.712,1.715-3.992,2.658-6.42,2.658s-4.707-0.944-6.423-2.663l-51.307-51.307  c-3.541-3.541-3.541-9.305,0.003-12.85c1.712-1.715,3.992-2.658,6.42-2.658s4.707,0.944,6.423,2.663l51.307,51.307  C496.846,415.59,496.846,421.353,493.301,424.899z"/>
<path d="M384.267,273.636h-9.086v-0.534c0-1.655-0.125-3.279-0.357-4.871l6.562-6.562c3.131-3.131,3.131-8.207,0-11.337  c-3.131-3.131-8.207-3.131-11.337,0l-2.037,2.037c-2.205-2.812-4.841-5.269-7.817-7.261l5.588-11.176  c1.981-3.96,0.375-8.776-3.585-10.755c-3.959-1.98-8.775-0.375-10.755,3.585l-6.427,12.853c-1.152-0.12-2.322-0.183-3.505-0.183  c-1.183,0-2.353,0.063-3.505,0.183l-6.427-12.853c-1.981-3.96-6.794-5.567-10.755-3.585c-3.96,1.98-5.566,6.795-3.585,10.755  l5.588,11.176c-2.975,1.992-5.611,4.449-7.815,7.26l-2.036-2.036c-3.131-3.131-8.207-3.131-11.337,0  c-3.131,3.131-3.131,8.207,0,11.337l6.56,6.56c-0.232,1.592-0.357,3.218-0.357,4.873v0.534h-9.086c-4.427,0-8.017,3.589-8.017,8.017  c0,4.427,3.589,8.017,8.017,8.017h9.086v0.534c0,1.656,0.125,3.281,0.357,4.873l-6.56,6.56c-3.131,3.131-3.131,8.207,0,11.337  c1.565,1.565,3.617,2.348,5.668,2.348c2.051,0,4.103-0.782,5.668-2.348l2.036-2.036c6.169,7.867,15.75,12.937,26.499,12.937  c10.749,0,20.33-5.07,26.5-12.936l2.038,2.038c1.565,1.565,3.617,2.348,5.668,2.348s4.103-0.782,5.668-2.348  c3.131-3.131,3.131-8.207,0-11.337l-6.562-6.562c0.232-1.592,0.357-3.218,0.357-4.873v-0.536h9.086c4.427,0,8.017-3.589,8.017-8.017  C392.284,277.226,388.695,273.636,384.267,273.636z M357.202,265.085h-31.379c2.926-5.701,8.853-9.62,15.69-9.62  S354.276,259.384,357.202,265.085z M359.148,290.204c0,9.725-7.912,17.637-17.637,17.637c-9.725,0-17.637-7.912-17.637-17.637  v-9.086h35.273V290.204z"/>
<g>
</g>
<g>
</g>
<g>
</g>
<g>
</g>
<g>
</g>
<g>
</g>
<g>
</g>
<g>
</g>
<g>
</g>
<g>
</g>
<g>
</g>
<g>
</g>
<g>
</g>
<g>
</g>
<g>
</g>
</svg>
