<?xml version="1.0" encoding="utf-8"?>
<!-- Generator: Adobe Illustrator 19.2.0, SVG Export Plug-In . SVG Version: 6.00 Build 0)  -->
<svg version="1.1" id="Layer_1" xmlns="http://www.w3.org/2000/svg" xmlns:xlink="http://www.w3.org/1999/xlink" x="0px" y="0px"
	 viewBox="0 0 500 500" style="enable-background:new 0 0 500 500;" xml:space="preserve">
<style type="text/css">
	.st0{fill:#ECF4F7;}
	.st1{fill:#1C1D21;}
	.st2{fill:#83E1E5;}
	.st3{fill:#AAB1BA;}
	.st4{fill:none;stroke:#1C1D21;stroke-width:10;stroke-linecap:round;stroke-linejoin:round;stroke-miterlimit:10;}
	.st5{fill:#FDDF7F;}
	.st6{fill:#FFFFFF;}
</style>
<g>
	<g>
		<g>
			<path class="st3" d="M383.6,82.2v299.6c0,10.3-8.4,18.7-18.7,18.7H70.7c-26.1,0-47.3,21.2-47.3,47.3v0
				c0,26.1,21.2,47.3,47.3,47.3h342.3c11.2,0,20.3-9.1,20.3-20.3v-74.2v-298c0-11.2-9.1-20.3-20.3-20.3H383.6z"/>
		</g>
	</g>
	<g>
		<g>
			<path class="st1" d="M413.1,500H70.7c-28.8,0-52.3-23.4-52.3-52.3c0-28.8,23.4-52.3,52.3-52.3h292.6c8.4,0,15.3-6.9,15.3-15.3
				v-298c0-2.8,2.2-5,5-5h29.4c13.9,0,25.3,11.3,25.3,25.3v372.2C438.3,488.7,427,500,413.1,500z M70.7,405.5
				c-23.3,0-42.3,19-42.3,42.3s19,42.3,42.3,42.3h342.3c8.4,0,15.3-6.9,15.3-15.3V102.5c0-8.4-6.9-15.3-15.3-15.3h-24.4v293
				c0,13.9-11.3,25.3-25.3,25.3H70.7z"/>
		</g>
	</g>
	<g>
		<g>
			<path class="st0" d="M70.7,400.5h292.6c11.2,0,20.3-9.1,20.3-20.3v0V25.3c0-11.2-9.1-20.3-20.3-20.3H43.8
				c-11.2,0-20.3,9.1-20.3,20.3v422.5C23.5,421.6,44.6,400.5,70.7,400.5z"/>
		</g>
	</g>
	<g>
		<g>
			<path class="st1" d="M23.5,452.7c-2.8,0-5-2.2-5-5V25.3C18.5,11.3,29.8,0,43.8,0h319.6c13.9,0,25.3,11.3,25.3,25.3v354.9
				c0,13.9-11.3,25.3-25.3,25.3H70.7c-23.3,0-42.3,19-42.3,42.3C28.5,450.5,26.2,452.7,23.5,452.7z M43.8,10
				c-8.4,0-15.3,6.9-15.3,15.3V417c9.5-13.1,24.9-21.5,42.3-21.5h292.6c8.4,0,15.3-6.9,15.3-15.3V25.3c0-8.4-6.9-15.3-15.3-15.3
				H43.8z"/>
		</g>
	</g>
	<g>
		<g>
			<path class="st1" d="M183.6,452.7H72.7c-2.8,0-5-2.2-5-5s2.2-5,5-5h110.9c2.8,0,5,2.2,5,5S186.4,452.7,183.6,452.7z"/>
		</g>
	</g>
	<g>
		<g>
			<path class="st1" d="M241.8,452.7h-24.6c-2.8,0-5-2.2-5-5s2.2-5,5-5h24.6c2.8,0,5,2.2,5,5S244.6,452.7,241.8,452.7z"/>
		</g>
	</g>
	<g>
		<g>
			<path class="st1" d="M273.7,452.7H264c-2.8,0-5-2.2-5-5s2.2-5,5-5h9.7c2.8,0,5,2.2,5,5S276.5,452.7,273.7,452.7z"/>
		</g>
	</g>
	<g>
		<g>
			<path class="st2" d="M471.3,464.6L337.2,330.6c-13.4-13.4-17.3-33.6-9.4-50.8c23.1-50.1,13.9-111.4-27.3-152.7
				c-53-53-138.9-53-191.9,0c-53,53-53.2,138.3-0.4,191.5c41.2,41.5,102.5,50.8,152.7,27.9c17.3-7.9,37.6-4.4,51,9l134.3,134.2
				c6.9,6.9,18.2,6.9,25.2,0C478.2,482.8,478.2,471.6,471.3,464.6z"/>
		</g>
	</g>
	<g>
		<g>
			<path class="st5" d="M204.5,325.1c-27.3,0-52.9-10.6-72.2-29.9c-19.3-19.3-29.9-44.9-29.9-72.2c0-27.3,10.6-52.9,29.9-72.2
				c19.3-19.3,44.9-29.9,72.2-29.9c27.3,0,52.9,10.6,72.2,29.9c19.3,19.3,29.9,44.9,29.9,72.2c0,27.3-10.6,52.9-29.9,72.2
				C257.4,314.5,231.8,325.1,204.5,325.1z"/>
		</g>
	</g>
	<g>
		<g>
			<path class="st1" d="M204.5,330.1c-28.6,0-55.5-11.1-75.7-31.4c-20.2-20.2-31.4-47.1-31.4-75.7c0-28.6,11.1-55.5,31.4-75.7
				c20.2-20.2,47.1-31.4,75.7-31.4c28.6,0,55.5,11.1,75.7,31.4c20.2,20.2,31.4,47.1,31.4,75.7c0,28.6-11.1,55.5-31.4,75.7
				C260,319,233.1,330.1,204.5,330.1z M204.5,125.9c-25.9,0-50.3,10.1-68.6,28.4c-18.3,18.3-28.4,42.7-28.4,68.6
				c0,25.9,10.1,50.3,28.4,68.6c18.3,18.3,42.7,28.4,68.6,28.4c25.9,0,50.3-10.1,68.6-28.4c18.3-18.3,28.4-42.7,28.4-68.6
				c0-25.9-10.1-50.3-28.4-68.6C254.8,136,230.5,125.9,204.5,125.9z"/>
		</g>
	</g>
	<g>
		<g>
			<path class="st1" d="M458.7,500c-5.8,0-11.7-2.2-16.1-6.7L308.3,359.1c-11.8-11.8-30-15-45.4-8c-25.9,11.8-54.5,15.5-82.6,10.6
				c-28.8-5-55-18.7-75.6-39.5c-26.5-26.7-41-62-40.9-99.4c0.1-37.4,14.8-72.6,41.3-99.2c54.9-54.9,144.1-54.9,199,0
				c20.7,20.7,34.3,46.9,39.2,75.7c4.8,28.2,1.1,56.7-10.8,82.6c-6.9,15.1-3.6,33.2,8.4,45.2l134.1,134.1v0c4.3,4.3,6.7,10,6.7,16.1
				c0,6.1-2.4,11.8-6.7,16.1C470.4,497.8,464.6,500,458.7,500z M279.8,337.4c13.1,0,26,5.1,35.6,14.6l134.3,134.2c5,5,13.1,5,18.1,0
				c2.4-2.4,3.7-5.6,3.7-9c0-3.4-1.3-6.6-3.7-9L333.7,334.1c-14.9-14.9-19.1-37.6-10.4-56.4c22.8-49.5,12.2-108.6-26.3-147.1
				c-51-51-133.9-51-184.8,0c-50.8,50.8-50.9,133.5-0.4,184.5c38.4,38.7,97.5,49.5,147,26.9C265.5,338.9,272.7,337.4,279.8,337.4z"
				/>
		</g>
	</g>
	<g>
		<g>
			<g>
				<path class="st1" d="M259.5,194h-56c-2.8,0-5-2.2-5-5c0-2.8,2.2-5,5-5h56c2.8,0,5,2.2,5,5C264.5,191.8,262.3,194,259.5,194z"/>
			</g>
		</g>
		<g>
			<g>
				<path class="st1" d="M184,194h-11c-2.8,0-5-2.2-5-5c0-2.8,2.2-5,5-5h11c2.8,0,5,2.2,5,5C189,191.8,186.8,194,184,194z"/>
			</g>
		</g>
		<g>
			<g>
				<path class="st1" d="M152.3,194h-2.8c-2.8,0-5-2.2-5-5c0-2.8,2.2-5,5-5h2.8c2.8,0,5,2.2,5,5C157.3,191.8,155.1,194,152.3,194z"
					/>
			</g>
		</g>
		<g>
			<g>
				<path class="st1" d="M259.5,228h-110c-2.8,0-5-2.2-5-5c0-2.8,2.2-5,5-5h110c2.8,0,5,2.2,5,5C264.5,225.8,262.3,228,259.5,228z"
					/>
			</g>
		</g>
		<g>
			<g>
				<path class="st1" d="M259.5,262h-110c-2.8,0-5-2.2-5-5c0-2.8,2.2-5,5-5h110c2.8,0,5,2.2,5,5C264.5,259.8,262.3,262,259.5,262z"
					/>
			</g>
		</g>
	</g>
</g>
</svg>
